<?xml version="1.0" encoding="UTF-8" standalone="no"?>
<!DOCTYPE svg PUBLIC "-//W3C//DTD SVG 1.1//EN" "http://www.w3.org/Graphics/SVG/1.1/DTD/svg11.dtd">
<!-- Generated by graphviz version 2.40.1 (20161225.0304)
 -->
<!-- Title: G Pages: 1 -->
<svg width="1971pt" height="324pt" viewBox="0.00 0.00 1970.51 324.00" xmlns="http://www.w3.org/2000/svg" xmlns:xlink="http://www.w3.org/1999/xlink">
<g id="graph0" class="graph" transform="scale(1 1) rotate(0) translate(4 320)">
<title>G</title>
<polygon fill="#ffffff" stroke="transparent" points="-4,4 -4,-320 1966.5144,-320 1966.5144,4 -4,4"/>
<!-- N0 -->
<g id="node1" class="node">
<title>N0</title>
<ellipse fill="none" stroke="#000000" cx="148.6016" cy="-98" rx="148.7033" ry="18"/>
<text text-anchor="middle" x="148.6016" y="-93.8" font-family="Times,serif" font-size="14.00" fill="#000000">v0 = parameters({8,2}) @ 0xfff210</text>
</g>
<!-- N6 -->
<g id="node7" class="node">
<title>N6</title>
<ellipse fill="none" stroke="#000000" cx="474.5621" cy="-178" rx="59.8767" ry="18"/>
<text text-anchor="middle" x="474.5621" y="-173.8" font-family="Times,serif" font-size="14.00" fill="#000000">v6 = v0 * v4</text>
</g>
<!-- N0&#45;&gt;N6 -->
<g id="edge1" class="edge">
<title>N0-&gt;N6</title>
<path fill="none" stroke="#000000" d="M268.3224,-108.769C278.3511,-111.7388 288.1174,-115.4282 297.2032,-120 317.416,-130.1707 313.0283,-145.7545 333.2032,-156 355.0022,-167.0703 380.9377,-172.8799 404.6054,-175.8377"/>
<polygon fill="#000000" stroke="#000000" points="404.2681,-179.3216 414.5912,-176.9377 405.0346,-172.3637 404.2681,-179.3216"/>
</g>
<!-- N13 -->
<g id="node14" class="node">
<title>N13</title>
<ellipse fill="none" stroke="#000000" cx="474.5621" cy="-138" rx="69.6906" ry="18"/>
<text text-anchor="middle" x="474.5621" y="-133.8" font-family="Times,serif" font-size="14.00" fill="#000000">v13 = v0 * v11</text>
</g>
<!-- N0&#45;&gt;N13 -->
<g id="edge11" class="edge">
<title>N0-&gt;N13</title>
<path fill="none" stroke="#000000" d="M253.0826,-110.8213C301.4549,-116.7573 357.7541,-123.666 401.4853,-129.0324"/>
<polygon fill="#000000" stroke="#000000" points="401.1143,-132.5131 411.4662,-130.2572 401.967,-125.5652 401.1143,-132.5131"/>
</g>
<!-- N20 -->
<g id="node21" class="node">
<title>N20</title>
<ellipse fill="none" stroke="#000000" cx="474.5621" cy="-58" rx="69.6906" ry="18"/>
<text text-anchor="middle" x="474.5621" y="-53.8" font-family="Times,serif" font-size="14.00" fill="#000000">v20 = v0 * v18</text>
</g>
<!-- N0&#45;&gt;N20 -->
<g id="edge21" class="edge">
<title>N0-&gt;N20</title>
<path fill="none" stroke="#000000" d="M253.0826,-85.1787C301.4549,-79.2427 357.7541,-72.334 401.4853,-66.9676"/>
<polygon fill="#000000" stroke="#000000" points="401.967,-70.4348 411.4662,-65.7428 401.1143,-63.4869 401.967,-70.4348"/>
</g>
<!-- N27 -->
<g id="node28" class="node">
<title>N27</title>
<ellipse fill="none" stroke="#000000" cx="474.5621" cy="-18" rx="69.6906" ry="18"/>
<text text-anchor="middle" x="474.5621" y="-13.8" font-family="Times,serif" font-size="14.00" fill="#000000">v27 = v0 * v25</text>
</g>
<!-- N0&#45;&gt;N27 -->
<g id="edge31" class="edge">
<title>N0-&gt;N27</title>
<path fill="none" stroke="#000000" d="M268.3224,-87.231C278.3511,-84.2612 288.1174,-80.5718 297.2032,-76 317.416,-65.8293 313.0283,-50.2455 333.2032,-40 352.225,-30.3401 374.3964,-24.6858 395.4624,-21.4366"/>
<polygon fill="#000000" stroke="#000000" points="395.9442,-24.9034 405.371,-20.0675 394.986,-17.9693 395.9442,-24.9034"/>
</g>
<!-- N1 -->
<g id="node2" class="node">
<title>N1</title>
<ellipse fill="none" stroke="#000000" cx="474.5621" cy="-98" rx="141.218" ry="18"/>
<text text-anchor="middle" x="474.5621" y="-93.8" font-family="Times,serif" font-size="14.00" fill="#000000">v1 = parameters({8}) @ 0xfff350</text>
</g>
<!-- N7 -->
<g id="node8" class="node">
<title>N7</title>
<ellipse fill="none" stroke="#000000" cx="722.1334" cy="-178" rx="60.6108" ry="18"/>
<text text-anchor="middle" x="722.1334" y="-173.8" font-family="Times,serif" font-size="14.00" fill="#000000">v7 = v6 + v1</text>
</g>
<!-- N1&#45;&gt;N7 -->
<g id="edge4" class="edge">
<title>N1-&gt;N7</title>
<path fill="none" stroke="#000000" d="M587.7277,-108.9491C597.522,-111.8718 607.0631,-115.5016 615.921,-120 636.096,-130.2455 632.5661,-144.2788 651.921,-156 656.0731,-158.5145 660.5396,-160.7672 665.1357,-162.7805"/>
<polygon fill="#000000" stroke="#000000" points="664.107,-166.1381 674.6924,-166.5839 666.6954,-159.6342 664.107,-166.1381"/>
</g>
<!-- N14 -->
<g id="node15" class="node">
<title>N14</title>
<ellipse fill="none" stroke="#000000" cx="722.1334" cy="-138" rx="70.4253" ry="18"/>
<text text-anchor="middle" x="722.1334" y="-133.8" font-family="Times,serif" font-size="14.00" fill="#000000">v14 = v13 + v1</text>
</g>
<!-- N1&#45;&gt;N14 -->
<g id="edge14" class="edge">
<title>N1-&gt;N14</title>
<path fill="none" stroke="#000000" d="M565.0834,-111.9024C581.9856,-114.5509 599.4959,-117.3302 615.921,-120 628.1568,-121.9888 641.1765,-124.1545 653.754,-126.272"/>
<polygon fill="#000000" stroke="#000000" points="653.2795,-129.7413 663.7227,-127.9556 654.4453,-122.8391 653.2795,-129.7413"/>
</g>
<!-- N21 -->
<g id="node22" class="node">
<title>N21</title>
<ellipse fill="none" stroke="#000000" cx="722.1334" cy="-58" rx="70.4253" ry="18"/>
<text text-anchor="middle" x="722.1334" y="-53.8" font-family="Times,serif" font-size="14.00" fill="#000000">v21 = v20 + v1</text>
</g>
<!-- N1&#45;&gt;N21 -->
<g id="edge24" class="edge">
<title>N1-&gt;N21</title>
<path fill="none" stroke="#000000" d="M565.0834,-84.0976C581.9856,-81.4491 599.4959,-78.6698 615.921,-76 628.1568,-74.0112 641.1765,-71.8455 653.754,-69.728"/>
<polygon fill="#000000" stroke="#000000" points="654.4453,-73.1609 663.7227,-68.0444 653.2795,-66.2587 654.4453,-73.1609"/>
</g>
<!-- N28 -->
<g id="node29" class="node">
<title>N28</title>
<ellipse fill="none" stroke="#000000" cx="722.1334" cy="-18" rx="70.4253" ry="18"/>
<text text-anchor="middle" x="722.1334" y="-13.8" font-family="Times,serif" font-size="14.00" fill="#000000">v28 = v27 + v1</text>
</g>
<!-- N1&#45;&gt;N28 -->
<g id="edge34" class="edge">
<title>N1-&gt;N28</title>
<path fill="none" stroke="#000000" d="M587.7277,-87.0509C597.522,-84.1282 607.0631,-80.4984 615.921,-76 636.096,-65.7545 632.5661,-51.7212 651.921,-40 655.1137,-38.0666 658.4921,-36.2879 661.9725,-34.6539"/>
<polygon fill="#000000" stroke="#000000" points="663.5327,-37.7937 671.3653,-30.6592 660.7931,-31.3521 663.5327,-37.7937"/>
</g>
<!-- N2 -->
<g id="node3" class="node">
<title>N2</title>
<ellipse fill="none" stroke="#000000" cx="976.9473" cy="-138" rx="148.7033" ry="18"/>
<text text-anchor="middle" x="976.9473" y="-133.8" font-family="Times,serif" font-size="14.00" fill="#000000">v2 = parameters({1,8}) @ 0xfff480</text>
</g>
<!-- N9 -->
<g id="node10" class="node">
<title>N9</title>
<ellipse fill="none" stroke="#000000" cx="1306.7552" cy="-258" rx="79.7388" ry="18"/>
<text text-anchor="middle" x="1306.7552" y="-253.8" font-family="Times,serif" font-size="14.00" fill="#000000">v9 = v3 + v2 * v8</text>
</g>
<!-- N2&#45;&gt;N9 -->
<g id="edge7" class="edge">
<title>N2-&gt;N9</title>
<path fill="none" stroke="#000000" d="M1103.3995,-147.4875C1111.2627,-150.8343 1118.7387,-154.9538 1125.5489,-160 1155.579,-182.2516 1131.5566,-213.6976 1161.5489,-236 1177.5644,-247.9091 1197.3614,-254.5923 1217.1303,-258.1319"/>
<polygon fill="#000000" stroke="#000000" points="1216.714,-261.6089 1227.1293,-259.6668 1217.7762,-254.69 1216.714,-261.6089"/>
</g>
<!-- N16 -->
<g id="node17" class="node">
<title>N16</title>
<ellipse fill="none" stroke="#000000" cx="1306.7552" cy="-178" rx="89.5525" ry="18"/>
<text text-anchor="middle" x="1306.7552" y="-173.8" font-family="Times,serif" font-size="14.00" fill="#000000">v16 = v3 + v2 * v15</text>
</g>
<!-- N2&#45;&gt;N16 -->
<g id="edge17" class="edge">
<title>N2-&gt;N16</title>
<path fill="none" stroke="#000000" d="M1082.2074,-150.7662C1126.624,-156.1532 1177.7127,-162.3494 1219.9269,-167.4692"/>
<polygon fill="#000000" stroke="#000000" points="1219.5519,-170.9493 1229.9005,-168.6789 1220.3947,-164.0002 1219.5519,-170.9493"/>
</g>
<!-- N23 -->
<g id="node24" class="node">
<title>N23</title>
<ellipse fill="none" stroke="#000000" cx="1306.7552" cy="-98" rx="89.5525" ry="18"/>
<text text-anchor="middle" x="1306.7552" y="-93.8" font-family="Times,serif" font-size="14.00" fill="#000000">v23 = v3 + v2 * v22</text>
</g>
<!-- N2&#45;&gt;N23 -->
<g id="edge27" class="edge">
<title>N2-&gt;N23</title>
<path fill="none" stroke="#000000" d="M1082.2074,-125.2338C1126.624,-119.8468 1177.7127,-113.6506 1219.9269,-108.5308"/>
<polygon fill="#000000" stroke="#000000" points="1220.3947,-111.9998 1229.9005,-107.3211 1219.5519,-105.0507 1220.3947,-111.9998"/>
</g>
<!-- N30 -->
<g id="node31" class="node">
<title>N30</title>
<ellipse fill="none" stroke="#000000" cx="1306.7552" cy="-18" rx="89.5525" ry="18"/>
<text text-anchor="middle" x="1306.7552" y="-13.8" font-family="Times,serif" font-size="14.00" fill="#000000">v30 = v3 + v2 * v29</text>
</g>
<!-- N2&#45;&gt;N30 -->
<g id="edge37" class="edge">
<title>N2-&gt;N30</title>
<path fill="none" stroke="#000000" d="M1103.3995,-128.5125C1111.2627,-125.1657 1118.7387,-121.0462 1125.5489,-116 1155.579,-93.7484 1131.5566,-62.3024 1161.5489,-40 1174.7651,-30.1725 1190.5564,-23.9037 1206.7819,-20.0234"/>
<polygon fill="#000000" stroke="#000000" points="1207.8485,-23.3762 1216.9216,-17.9056 1206.4172,-16.5241 1207.8485,-23.3762"/>
</g>
<!-- N3 -->
<g id="node4" class="node">
<title>N3</title>
<ellipse fill="none" stroke="#000000" cx="976.9473" cy="-98" rx="141.218" ry="18"/>
<text text-anchor="middle" x="976.9473" y="-93.8" font-family="Times,serif" font-size="14.00" fill="#000000">v3 = parameters({1}) @ 0xfff620</text>
</g>
<!-- N3&#45;&gt;N9 -->
<g id="edge6" class="edge">
<title>N3-&gt;N9</title>
<path fill="none" stroke="#000000" d="M1103.5454,-106.086C1111.4714,-109.7419 1118.9143,-114.3155 1125.5489,-120 1166.5415,-155.1224 1120.6159,-200.8083 1161.5489,-236 1177.2503,-249.4991 1197.6026,-256.6475 1218.0749,-260.116"/>
<polygon fill="#000000" stroke="#000000" points="1217.7233,-263.601 1228.1147,-261.5348 1218.7029,-256.6699 1217.7233,-263.601"/>
</g>
<!-- N3&#45;&gt;N16 -->
<g id="edge16" class="edge">
<title>N3-&gt;N16</title>
<path fill="none" stroke="#000000" d="M1094.3494,-108.0963C1105.1902,-111.1764 1115.7642,-115.0765 1125.5489,-120 1145.7617,-130.1707 1141.3534,-145.7951 1161.5489,-156 1176.2484,-163.4277 1192.7745,-168.5077 1209.2697,-171.9519"/>
<polygon fill="#000000" stroke="#000000" points="1209.0432,-175.4711 1219.5196,-173.8914 1210.3447,-168.5932 1209.0432,-175.4711"/>
</g>
<!-- N3&#45;&gt;N23 -->
<g id="edge26" class="edge">
<title>N3-&gt;N23</title>
<path fill="none" stroke="#000000" d="M1118.7296,-98C1148.4287,-98 1179.1486,-98 1206.9325,-98"/>
<polygon fill="#000000" stroke="#000000" points="1207.0286,-101.5001 1217.0286,-98 1207.0285,-94.5001 1207.0286,-101.5001"/>
</g>
<!-- N3&#45;&gt;N30 -->
<g id="edge36" class="edge">
<title>N3-&gt;N30</title>
<path fill="none" stroke="#000000" d="M1094.3494,-87.9037C1105.1902,-84.8236 1115.7642,-80.9235 1125.5489,-76 1145.7617,-65.8293 1141.3534,-50.2049 1161.5489,-40 1176.2484,-32.5723 1192.7745,-27.4923 1209.2697,-24.0481"/>
<polygon fill="#000000" stroke="#000000" points="1210.3447,-27.4068 1219.5196,-22.1086 1209.0432,-20.5289 1210.3447,-27.4068"/>
</g>
<!-- N4 -->
<g id="node5" class="node">
<title>N4</title>
<ellipse fill="none" stroke="#000000" cx="148.6016" cy="-178" rx="83.8525" ry="18"/>
<text text-anchor="middle" x="148.6016" y="-173.8" font-family="Times,serif" font-size="14.00" fill="#000000">v4 = constant({2})</text>
</g>
<!-- N4&#45;&gt;N6 -->
<g id="edge2" class="edge">
<title>N4-&gt;N6</title>
<path fill="none" stroke="#000000" d="M232.5445,-178C285.8398,-178 354.013,-178 404.4149,-178"/>
<polygon fill="#000000" stroke="#000000" points="404.5684,-181.5001 414.5683,-178 404.5683,-174.5001 404.5684,-181.5001"/>
</g>
<!-- N5 -->
<g id="node6" class="node">
<title>N5</title>
<ellipse fill="none" stroke="#000000" cx="1306.7552" cy="-298" rx="130.3332" ry="18"/>
<text text-anchor="middle" x="1306.7552" y="-293.8" font-family="Times,serif" font-size="14.00" fill="#000000">v5 = scalar_constant(0xfffc50)</text>
</g>
<!-- N10 -->
<g id="node11" class="node">
<title>N10</title>
<ellipse fill="none" stroke="#000000" cx="1582.6782" cy="-258" rx="85.1198" ry="18"/>
<text text-anchor="middle" x="1582.6782" y="-253.8" font-family="Times,serif" font-size="14.00" fill="#000000">v10 = || v9 - v5 ||^2</text>
</g>
<!-- N5&#45;&gt;N10 -->
<g id="edge10" class="edge">
<title>N5-&gt;N10</title>
<path fill="none" stroke="#000000" d="M1396.7209,-284.9579C1430.641,-280.0405 1468.9832,-274.4821 1502.002,-269.6955"/>
<polygon fill="#000000" stroke="#000000" points="1502.6732,-273.1348 1512.0676,-268.2363 1501.6689,-266.2073 1502.6732,-273.1348"/>
</g>
<!-- N6&#45;&gt;N7 -->
<g id="edge3" class="edge">
<title>N6-&gt;N7</title>
<path fill="none" stroke="#000000" d="M534.8083,-178C569.8703,-178 614.2634,-178 651.0322,-178"/>
<polygon fill="#000000" stroke="#000000" points="651.1866,-181.5001 661.1866,-178 651.1866,-174.5001 651.1866,-181.5001"/>
</g>
<!-- N8 -->
<g id="node9" class="node">
<title>N8</title>
<ellipse fill="none" stroke="#000000" cx="976.9473" cy="-238" rx="70.8038" ry="18"/>
<text text-anchor="middle" x="976.9473" y="-233.8" font-family="Times,serif" font-size="14.00" fill="#000000">v8 = ReLU(v7)</text>
</g>
<!-- N7&#45;&gt;N8 -->
<g id="edge5" class="edge">
<title>N7-&gt;N8</title>
<path fill="none" stroke="#000000" d="M769.763,-189.2152C810.7423,-198.8644 870.1464,-212.852 914.8489,-223.3779"/>
<polygon fill="#000000" stroke="#000000" points="914.1889,-226.8182 924.7249,-225.7034 915.7933,-220.0045 914.1889,-226.8182"/>
</g>
<!-- N8&#45;&gt;N9 -->
<g id="edge8" class="edge">
<title>N8-&gt;N9</title>
<path fill="none" stroke="#000000" d="M1045.6844,-242.1683C1096.0528,-245.2227 1164.8202,-249.3929 1219.1337,-252.6865"/>
<polygon fill="#000000" stroke="#000000" points="1219.2526,-256.2001 1229.4462,-253.3119 1219.6764,-249.2129 1219.2526,-256.2001"/>
</g>
<!-- N9&#45;&gt;N10 -->
<g id="edge9" class="edge">
<title>N9-&gt;N10</title>
<path fill="none" stroke="#000000" d="M1386.9342,-258C1418.3694,-258 1454.6897,-258 1487.4448,-258"/>
<polygon fill="#000000" stroke="#000000" points="1487.4864,-261.5001 1497.4863,-258 1487.4863,-254.5001 1487.4864,-261.5001"/>
</g>
<!-- N32 -->
<g id="node33" class="node">
<title>N32</title>
<ellipse fill="none" stroke="#000000" cx="1837.9548" cy="-158" rx="124.6194" ry="18"/>
<text text-anchor="middle" x="1837.9548" y="-153.8" font-family="Times,serif" font-size="14.00" fill="#000000">v32 = v10 + v17 + v24 + v31</text>
</g>
<!-- N10&#45;&gt;N32 -->
<g id="edge41" class="edge">
<title>N10-&gt;N32</title>
<path fill="none" stroke="#000000" d="M1623.1276,-242.1547C1667.0174,-224.9617 1737.2537,-197.4478 1785.3899,-178.5913"/>
<polygon fill="#000000" stroke="#000000" points="1786.6737,-181.8475 1794.7081,-174.9411 1784.1204,-175.3297 1786.6737,-181.8475"/>
</g>
<!-- N11 -->
<g id="node12" class="node">
<title>N11</title>
<ellipse fill="none" stroke="#000000" cx="148.6016" cy="-138" rx="88.509" ry="18"/>
<text text-anchor="middle" x="148.6016" y="-133.8" font-family="Times,serif" font-size="14.00" fill="#000000">v11 = constant({2})</text>
</g>
<!-- N11&#45;&gt;N13 -->
<g id="edge12" class="edge">
<title>N11-&gt;N13</title>
<path fill="none" stroke="#000000" d="M237.2412,-138C286.3312,-138 346.8729,-138 394.5207,-138"/>
<polygon fill="#000000" stroke="#000000" points="394.7913,-141.5001 404.7913,-138 394.7913,-134.5001 394.7913,-141.5001"/>
</g>
<!-- N12 -->
<g id="node13" class="node">
<title>N12</title>
<ellipse fill="none" stroke="#000000" cx="1306.7552" cy="-218" rx="144.8291" ry="18"/>
<text text-anchor="middle" x="1306.7552" y="-213.8" font-family="Times,serif" font-size="14.00" fill="#000000">v12 = scalar_constant(0x10001e0)</text>
</g>
<!-- N17 -->
<g id="node18" class="node">
<title>N17</title>
<ellipse fill="none" stroke="#000000" cx="1582.6782" cy="-178" rx="94.9342" ry="18"/>
<text text-anchor="middle" x="1582.6782" y="-173.8" font-family="Times,serif" font-size="14.00" fill="#000000">v17 = || v16 - v12 ||^2</text>
</g>
<!-- N12&#45;&gt;N17 -->
<g id="edge20" class="edge">
<title>N12-&gt;N17</title>
<path fill="none" stroke="#000000" d="M1401.3262,-204.2902C1432.3016,-199.7998 1466.5259,-194.8384 1496.821,-190.4466"/>
<polygon fill="#000000" stroke="#000000" points="1497.5395,-193.8791 1506.9339,-188.9805 1496.5352,-186.9515 1497.5395,-193.8791"/>
</g>
<!-- N13&#45;&gt;N14 -->
<g id="edge13" class="edge">
<title>N13-&gt;N14</title>
<path fill="none" stroke="#000000" d="M544.1834,-138C574.5105,-138 610.2407,-138 641.6965,-138"/>
<polygon fill="#000000" stroke="#000000" points="641.747,-141.5001 651.747,-138 641.7469,-134.5001 641.747,-141.5001"/>
</g>
<!-- N15 -->
<g id="node16" class="node">
<title>N15</title>
<ellipse fill="none" stroke="#000000" cx="976.9473" cy="-178" rx="80.1178" ry="18"/>
<text text-anchor="middle" x="976.9473" y="-173.8" font-family="Times,serif" font-size="14.00" fill="#000000">v15 = ReLU(v14)</text>
</g>
<!-- N14&#45;&gt;N15 -->
<g id="edge15" class="edge">
<title>N14-&gt;N15</title>
<path fill="none" stroke="#000000" d="M780.5315,-148.1223C796.0608,-150.7523 812.8298,-153.537 828.3457,-156 851.3439,-159.6508 876.3764,-163.4311 899.2264,-166.8066"/>
<polygon fill="#000000" stroke="#000000" points="898.8105,-170.283 909.2136,-168.2768 899.83,-163.3576 898.8105,-170.283"/>
</g>
<!-- N15&#45;&gt;N16 -->
<g id="edge18" class="edge">
<title>N15-&gt;N16</title>
<path fill="none" stroke="#000000" d="M1057.6274,-178C1102.6709,-178 1159.1748,-178 1206.9789,-178"/>
<polygon fill="#000000" stroke="#000000" points="1207.0405,-181.5001 1217.0405,-178 1207.0404,-174.5001 1207.0405,-181.5001"/>
</g>
<!-- N16&#45;&gt;N17 -->
<g id="edge19" class="edge">
<title>N16-&gt;N17</title>
<path fill="none" stroke="#000000" d="M1396.3395,-178C1422.2926,-178 1450.861,-178 1477.6667,-178"/>
<polygon fill="#000000" stroke="#000000" points="1477.8449,-181.5001 1487.8449,-178 1477.8448,-174.5001 1477.8449,-181.5001"/>
</g>
<!-- N17&#45;&gt;N32 -->
<g id="edge42" class="edge">
<title>N17-&gt;N32</title>
<path fill="none" stroke="#000000" d="M1670.5299,-171.1171C1685.9371,-169.91 1702.2035,-168.6356 1718.3,-167.3745"/>
<polygon fill="#000000" stroke="#000000" points="1718.5952,-170.8622 1728.2912,-166.5917 1718.0484,-163.8836 1718.5952,-170.8622"/>
</g>
<!-- N18 -->
<g id="node19" class="node">
<title>N18</title>
<ellipse fill="none" stroke="#000000" cx="148.6016" cy="-58" rx="88.509" ry="18"/>
<text text-anchor="middle" x="148.6016" y="-53.8" font-family="Times,serif" font-size="14.00" fill="#000000">v18 = constant({2})</text>
</g>
<!-- N18&#45;&gt;N20 -->
<g id="edge22" class="edge">
<title>N18-&gt;N20</title>
<path fill="none" stroke="#000000" d="M237.2412,-58C286.3312,-58 346.8729,-58 394.5207,-58"/>
<polygon fill="#000000" stroke="#000000" points="394.7913,-61.5001 404.7913,-58 394.7913,-54.5001 394.7913,-61.5001"/>
</g>
<!-- N19 -->
<g id="node20" class="node">
<title>N19</title>
<ellipse fill="none" stroke="#000000" cx="1306.7552" cy="-138" rx="145.4128" ry="18"/>
<text text-anchor="middle" x="1306.7552" y="-133.8" font-family="Times,serif" font-size="14.00" fill="#000000">v19 = scalar_constant(0x1000780)</text>
</g>
<!-- N24 -->
<g id="node25" class="node">
<title>N24</title>
<ellipse fill="none" stroke="#000000" cx="1582.6782" cy="-138" rx="94.9342" ry="18"/>
<text text-anchor="middle" x="1582.6782" y="-133.8" font-family="Times,serif" font-size="14.00" fill="#000000">v24 = || v23 - v19 ||^2</text>
</g>
<!-- N19&#45;&gt;N24 -->
<g id="edge30" class="edge">
<title>N19-&gt;N24</title>
<path fill="none" stroke="#000000" d="M1451.989,-138C1460.5731,-138 1469.1195,-138 1477.4948,-138"/>
<polygon fill="#000000" stroke="#000000" points="1477.6171,-141.5001 1487.6171,-138 1477.617,-134.5001 1477.6171,-141.5001"/>
</g>
<!-- N20&#45;&gt;N21 -->
<g id="edge23" class="edge">
<title>N20-&gt;N21</title>
<path fill="none" stroke="#000000" d="M544.1834,-58C574.5105,-58 610.2407,-58 641.6965,-58"/>
<polygon fill="#000000" stroke="#000000" points="641.747,-61.5001 651.747,-58 641.7469,-54.5001 641.747,-61.5001"/>
</g>
<!-- N22 -->
<g id="node23" class="node">
<title>N22</title>
<ellipse fill="none" stroke="#000000" cx="976.9473" cy="-58" rx="80.1178" ry="18"/>
<text text-anchor="middle" x="976.9473" y="-53.8" font-family="Times,serif" font-size="14.00" fill="#000000">v22 = ReLU(v21)</text>
</g>
<!-- N21&#45;&gt;N22 -->
<g id="edge25" class="edge">
<title>N21-&gt;N22</title>
<path fill="none" stroke="#000000" d="M792.4369,-58C821.4216,-58 855.3777,-58 886.2038,-58"/>
<polygon fill="#000000" stroke="#000000" points="886.5262,-61.5001 896.5262,-58 886.5262,-54.5001 886.5262,-61.5001"/>
</g>
<!-- N22&#45;&gt;N23 -->
<g id="edge28" class="edge">
<title>N22-&gt;N23</title>
<path fill="none" stroke="#000000" d="M1047.6994,-66.581C1098.1097,-72.6949 1166.1733,-80.9498 1219.8835,-87.464"/>
<polygon fill="#000000" stroke="#000000" points="1219.7321,-90.9712 1230.0808,-88.7007 1220.5749,-84.0221 1219.7321,-90.9712"/>
</g>
<!-- N23&#45;&gt;N24 -->
<g id="edge29" class="edge">
<title>N23-&gt;N24</title>
<path fill="none" stroke="#000000" d="M1379.6116,-108.5619C1415.667,-113.7887 1459.42,-120.1315 1497.0667,-125.5891"/>
<polygon fill="#000000" stroke="#000000" points="1496.6044,-129.0586 1507.0031,-127.0295 1497.6087,-122.131 1496.6044,-129.0586"/>
</g>
<!-- N24&#45;&gt;N32 -->
<g id="edge43" class="edge">
<title>N24-&gt;N32</title>
<path fill="none" stroke="#000000" d="M1670.5299,-144.8829C1685.9371,-146.09 1702.2035,-147.3644 1718.3,-148.6255"/>
<polygon fill="#000000" stroke="#000000" points="1718.0484,-152.1164 1728.2912,-149.4083 1718.5952,-145.1378 1718.0484,-152.1164"/>
</g>
<!-- N25 -->
<g id="node26" class="node">
<title>N25</title>
<ellipse fill="none" stroke="#000000" cx="148.6016" cy="-18" rx="88.509" ry="18"/>
<text text-anchor="middle" x="148.6016" y="-13.8" font-family="Times,serif" font-size="14.00" fill="#000000">v25 = constant({2})</text>
</g>
<!-- N25&#45;&gt;N27 -->
<g id="edge32" class="edge">
<title>N25-&gt;N27</title>
<path fill="none" stroke="#000000" d="M237.2412,-18C286.3312,-18 346.8729,-18 394.5207,-18"/>
<polygon fill="#000000" stroke="#000000" points="394.7913,-21.5001 404.7913,-18 394.7913,-14.5001 394.7913,-21.5001"/>
</g>
<!-- N26 -->
<g id="node27" class="node">
<title>N26</title>
<ellipse fill="none" stroke="#000000" cx="1306.7552" cy="-58" rx="144.8291" ry="18"/>
<text text-anchor="middle" x="1306.7552" y="-53.8" font-family="Times,serif" font-size="14.00" fill="#000000">v26 = scalar_constant(0x1000c30)</text>
</g>
<!-- N31 -->
<g id="node32" class="node">
<title>N31</title>
<ellipse fill="none" stroke="#000000" cx="1582.6782" cy="-58" rx="94.9342" ry="18"/>
<text text-anchor="middle" x="1582.6782" y="-53.8" font-family="Times,serif" font-size="14.00" fill="#000000">v31 = || v30 - v26 ||^2</text>
</g>
<!-- N26&#45;&gt;N31 -->
<g id="edge40" class="edge">
<title>N26-&gt;N31</title>
<path fill="none" stroke="#000000" d="M1451.5853,-58C1460.2804,-58 1468.939,-58 1477.4225,-58"/>
<polygon fill="#000000" stroke="#000000" points="1477.6744,-61.5001 1487.6744,-58 1477.6744,-54.5001 1477.6744,-61.5001"/>
</g>
<!-- N27&#45;&gt;N28 -->
<g id="edge33" class="edge">
<title>N27-&gt;N28</title>
<path fill="none" stroke="#000000" d="M544.1834,-18C574.5105,-18 610.2407,-18 641.6965,-18"/>
<polygon fill="#000000" stroke="#000000" points="641.747,-21.5001 651.747,-18 641.7469,-14.5001 641.747,-21.5001"/>
</g>
<!-- N29 -->
<g id="node30" class="node">
<title>N29</title>
<ellipse fill="none" stroke="#000000" cx="976.9473" cy="-18" rx="80.1178" ry="18"/>
<text text-anchor="middle" x="976.9473" y="-13.8" font-family="Times,serif" font-size="14.00" fill="#000000">v29 = ReLU(v28)</text>
</g>
<!-- N28&#45;&gt;N29 -->
<g id="edge35" class="edge">
<title>N28-&gt;N29</title>
<path fill="none" stroke="#000000" d="M792.4369,-18C821.4216,-18 855.3777,-18 886.2038,-18"/>
<polygon fill="#000000" stroke="#000000" points="886.5262,-21.5001 896.5262,-18 886.5262,-14.5001 886.5262,-21.5001"/>
</g>
<!-- N29&#45;&gt;N30 -->
<g id="edge38" class="edge">
<title>N29-&gt;N30</title>
<path fill="none" stroke="#000000" d="M1057.6274,-18C1102.6709,-18 1159.1748,-18 1206.9789,-18"/>
<polygon fill="#000000" stroke="#000000" points="1207.0405,-21.5001 1217.0405,-18 1207.0404,-14.5001 1207.0405,-21.5001"/>
</g>
<!-- N30&#45;&gt;N31 -->
<g id="edge39" class="edge">
<title>N30-&gt;N31</title>
<path fill="none" stroke="#000000" d="M1379.6116,-28.5619C1415.667,-33.7887 1459.42,-40.1315 1497.0667,-45.5891"/>
<polygon fill="#000000" stroke="#000000" points="1496.6044,-49.0586 1507.0031,-47.0295 1497.6087,-42.131 1496.6044,-49.0586"/>
</g>
<!-- N31&#45;&gt;N32 -->
<g id="edge44" class="edge">
<title>N31-&gt;N32</title>
<path fill="none" stroke="#000000" d="M1624.261,-74.2893C1668.1429,-91.4793 1737.4263,-118.6198 1785.1426,-137.3118"/>
<polygon fill="#000000" stroke="#000000" points="1784.0945,-140.6601 1794.6822,-141.0487 1786.6477,-134.1424 1784.0945,-140.6601"/>
</g>
</g>
</svg>