<?xml version="1.0" encoding="UTF-8" standalone="no"?>
<!DOCTYPE svg PUBLIC "-//W3C//DTD SVG 1.1//EN" "http://www.w3.org/Graphics/SVG/1.1/DTD/svg11.dtd">
<!-- Generated by graphviz version 2.40.1 (20161225.0304)
 -->
<!-- Title: G Pages: 1 -->
<svg width="1987pt" height="324pt" viewBox="0.00 0.00 1986.65 324.00" xmlns="http://www.w3.org/2000/svg" xmlns:xlink="http://www.w3.org/1999/xlink">
<g id="graph0" class="graph" transform="scale(1 1) rotate(0) translate(4 320)">
<title>G</title>
<polygon fill="#ffffff" stroke="transparent" points="-4,4 -4,-320 1982.6531,-320 1982.6531,4 -4,4"/>
<!-- N0 -->
<g id="node1" class="node">
<title>N0</title>
<ellipse fill="none" stroke="#000000" cx="152.9009" cy="-98" rx="152.8018" ry="18"/>
<text text-anchor="middle" x="152.9009" y="-93.8" font-family="Times,serif" font-size="14.00" fill="#000000">v0 = parameters({8,2}) @ 0x97c210</text>
</g>
<!-- N6 -->
<g id="node7" class="node">
<title>N6</title>
<ellipse fill="none" stroke="#000000" cx="487.46" cy="-178" rx="59.8767" ry="18"/>
<text text-anchor="middle" x="487.46" y="-173.8" font-family="Times,serif" font-size="14.00" fill="#000000">v6 = v0 * v4</text>
</g>
<!-- N0&#45;&gt;N6 -->
<g id="edge1" class="edge">
<title>N0-&gt;N6</title>
<path fill="none" stroke="#000000" d="M276.4736,-108.6475C286.655,-111.6483 296.569,-115.3778 305.8018,-120 326.0353,-130.1295 321.6039,-145.7998 341.8018,-156 364.8757,-167.6527 392.4353,-173.5334 417.3415,-176.3834"/>
<polygon fill="#000000" stroke="#000000" points="417.1676,-179.8834 427.4663,-177.396 417.8643,-172.9181 417.1676,-179.8834"/>
</g>
<!-- N13 -->
<g id="node14" class="node">
<title>N13</title>
<ellipse fill="none" stroke="#000000" cx="487.46" cy="-138" rx="69.6906" ry="18"/>
<text text-anchor="middle" x="487.46" y="-133.8" font-family="Times,serif" font-size="14.00" fill="#000000">v13 = v0 * v11</text>
</g>
<!-- N0&#45;&gt;N13 -->
<g id="edge11" class="edge">
<title>N0-&gt;N13</title>
<path fill="none" stroke="#000000" d="M260.599,-110.8764C310.6791,-116.864 368.9546,-123.8315 413.9016,-129.2053"/>
<polygon fill="#000000" stroke="#000000" points="413.5168,-132.6842 423.8616,-130.3962 414.3478,-125.7337 413.5168,-132.6842"/>
</g>
<!-- N20 -->
<g id="node21" class="node">
<title>N20</title>
<ellipse fill="none" stroke="#000000" cx="487.46" cy="-58" rx="69.6906" ry="18"/>
<text text-anchor="middle" x="487.46" y="-53.8" font-family="Times,serif" font-size="14.00" fill="#000000">v20 = v0 * v18</text>
</g>
<!-- N0&#45;&gt;N20 -->
<g id="edge21" class="edge">
<title>N0-&gt;N20</title>
<path fill="none" stroke="#000000" d="M260.599,-85.1236C310.6791,-79.136 368.9546,-72.1685 413.9016,-66.7947"/>
<polygon fill="#000000" stroke="#000000" points="414.3478,-70.2663 423.8616,-65.6038 413.5168,-63.3158 414.3478,-70.2663"/>
</g>
<!-- N27 -->
<g id="node28" class="node">
<title>N27</title>
<ellipse fill="none" stroke="#000000" cx="487.46" cy="-18" rx="69.6906" ry="18"/>
<text text-anchor="middle" x="487.46" y="-13.8" font-family="Times,serif" font-size="14.00" fill="#000000">v27 = v0 * v25</text>
</g>
<!-- N0&#45;&gt;N27 -->
<g id="edge31" class="edge">
<title>N0-&gt;N27</title>
<path fill="none" stroke="#000000" d="M276.4736,-87.3525C286.655,-84.3517 296.569,-80.6222 305.8018,-76 326.0353,-65.8705 321.6039,-50.2002 341.8018,-40 361.9945,-29.8024 385.6225,-24.0253 407.9012,-20.8313"/>
<polygon fill="#000000" stroke="#000000" points="408.5489,-24.2772 418.0252,-19.539 407.6625,-17.3335 408.5489,-24.2772"/>
</g>
<!-- N1 -->
<g id="node2" class="node">
<title>N1</title>
<ellipse fill="none" stroke="#000000" cx="487.46" cy="-98" rx="145.8165" ry="18"/>
<text text-anchor="middle" x="487.46" y="-93.8" font-family="Times,serif" font-size="14.00" fill="#000000">v1 = parameters({8}) @ 0x97c350</text>
</g>
<!-- N7 -->
<g id="node8" class="node">
<title>N7</title>
<ellipse fill="none" stroke="#000000" cx="739.3305" cy="-178" rx="60.6108" ry="18"/>
<text text-anchor="middle" x="739.3305" y="-173.8" font-family="Times,serif" font-size="14.00" fill="#000000">v7 = v6 + v1</text>
</g>
<!-- N1&#45;&gt;N7 -->
<g id="edge4" class="edge">
<title>N1-&gt;N7</title>
<path fill="none" stroke="#000000" d="M604.437,-108.8193C614.3984,-111.7737 624.1008,-115.4461 633.1181,-120 653.316,-130.2002 649.7632,-144.2788 669.1181,-156 673.2702,-158.5145 677.7367,-160.7672 682.3328,-162.7805"/>
<polygon fill="#000000" stroke="#000000" points="681.3041,-166.1381 691.8895,-166.5839 683.8925,-159.6342 681.3041,-166.1381"/>
</g>
<!-- N14 -->
<g id="node15" class="node">
<title>N14</title>
<ellipse fill="none" stroke="#000000" cx="739.3305" cy="-138" rx="70.4253" ry="18"/>
<text text-anchor="middle" x="739.3305" y="-133.8" font-family="Times,serif" font-size="14.00" fill="#000000">v14 = v13 + v1</text>
</g>
<!-- N1&#45;&gt;N14 -->
<g id="edge14" class="edge">
<title>N1-&gt;N14</title>
<path fill="none" stroke="#000000" d="M580.7433,-111.8348C598.1588,-114.4899 616.1989,-117.2888 633.1181,-120 645.3583,-121.9614 658.3801,-124.1137 670.9584,-126.2267"/>
<polygon fill="#000000" stroke="#000000" points="670.4845,-129.6962 680.9274,-127.9084 671.649,-122.7937 670.4845,-129.6962"/>
</g>
<!-- N21 -->
<g id="node22" class="node">
<title>N21</title>
<ellipse fill="none" stroke="#000000" cx="739.3305" cy="-58" rx="70.4253" ry="18"/>
<text text-anchor="middle" x="739.3305" y="-53.8" font-family="Times,serif" font-size="14.00" fill="#000000">v21 = v20 + v1</text>
</g>
<!-- N1&#45;&gt;N21 -->
<g id="edge24" class="edge">
<title>N1-&gt;N21</title>
<path fill="none" stroke="#000000" d="M580.7433,-84.1652C598.1588,-81.5101 616.1989,-78.7112 633.1181,-76 645.3583,-74.0386 658.3801,-71.8863 670.9584,-69.7733"/>
<polygon fill="#000000" stroke="#000000" points="671.649,-73.2063 680.9274,-68.0916 670.4845,-66.3038 671.649,-73.2063"/>
</g>
<!-- N28 -->
<g id="node29" class="node">
<title>N28</title>
<ellipse fill="none" stroke="#000000" cx="739.3305" cy="-18" rx="70.4253" ry="18"/>
<text text-anchor="middle" x="739.3305" y="-13.8" font-family="Times,serif" font-size="14.00" fill="#000000">v28 = v27 + v1</text>
</g>
<!-- N1&#45;&gt;N28 -->
<g id="edge34" class="edge">
<title>N1-&gt;N28</title>
<path fill="none" stroke="#000000" d="M604.437,-87.1807C614.3984,-84.2263 624.1008,-80.5539 633.1181,-76 653.316,-65.7998 649.7632,-51.7212 669.1181,-40 672.3107,-38.0666 675.6892,-36.2879 679.1696,-34.6539"/>
<polygon fill="#000000" stroke="#000000" points="680.7298,-37.7937 688.5624,-30.6592 677.9902,-31.3521 680.7298,-37.7937"/>
</g>
<!-- N2 -->
<g id="node3" class="node">
<title>N2</title>
<ellipse fill="none" stroke="#000000" cx="998.4437" cy="-138" rx="152.8018" ry="18"/>
<text text-anchor="middle" x="998.4437" y="-133.8" font-family="Times,serif" font-size="14.00" fill="#000000">v2 = parameters({1,8}) @ 0x97c480</text>
</g>
<!-- N9 -->
<g id="node10" class="node">
<title>N9</title>
<ellipse fill="none" stroke="#000000" cx="1327.7223" cy="-258" rx="79.7388" ry="18"/>
<text text-anchor="middle" x="1327.7223" y="-253.8" font-family="Times,serif" font-size="14.00" fill="#000000">v9 = v3 + v2 * v8</text>
</g>
<!-- N2&#45;&gt;N9 -->
<g id="edge7" class="edge">
<title>N2-&gt;N9</title>
<path fill="none" stroke="#000000" d="M1129.2857,-147.511C1137.1068,-150.87 1144.5467,-154.9844 1151.3446,-160 1181.4199,-182.1903 1157.4091,-213.6214 1187.3446,-236 1201.9315,-246.9046 1219.7801,-253.3494 1237.7959,-256.9998"/>
<polygon fill="#000000" stroke="#000000" points="1237.3486,-260.4746 1247.8022,-258.7508 1238.5553,-253.5794 1237.3486,-260.4746"/>
</g>
<!-- N16 -->
<g id="node17" class="node">
<title>N16</title>
<ellipse fill="none" stroke="#000000" cx="1327.7223" cy="-178" rx="89.5525" ry="18"/>
<text text-anchor="middle" x="1327.7223" y="-173.8" font-family="Times,serif" font-size="14.00" fill="#000000">v16 = v3 + v2 * v15</text>
</g>
<!-- N2&#45;&gt;N16 -->
<g id="edge17" class="edge">
<title>N2-&gt;N16</title>
<path fill="none" stroke="#000000" d="M1104.8963,-150.9316C1148.8133,-156.2665 1199.0694,-162.3715 1240.725,-167.4318"/>
<polygon fill="#000000" stroke="#000000" points="1240.4959,-170.9296 1250.845,-168.6611 1241.3401,-163.9807 1240.4959,-170.9296"/>
</g>
<!-- N23 -->
<g id="node24" class="node">
<title>N23</title>
<ellipse fill="none" stroke="#000000" cx="1327.7223" cy="-98" rx="89.5525" ry="18"/>
<text text-anchor="middle" x="1327.7223" y="-93.8" font-family="Times,serif" font-size="14.00" fill="#000000">v23 = v3 + v2 * v22</text>
</g>
<!-- N2&#45;&gt;N23 -->
<g id="edge27" class="edge">
<title>N2-&gt;N23</title>
<path fill="none" stroke="#000000" d="M1104.8963,-125.0684C1148.8133,-119.7335 1199.0694,-113.6285 1240.725,-108.5682"/>
<polygon fill="#000000" stroke="#000000" points="1241.3401,-112.0193 1250.845,-107.3389 1240.4959,-105.0704 1241.3401,-112.0193"/>
</g>
<!-- N30 -->
<g id="node31" class="node">
<title>N30</title>
<ellipse fill="none" stroke="#000000" cx="1327.7223" cy="-18" rx="89.5525" ry="18"/>
<text text-anchor="middle" x="1327.7223" y="-13.8" font-family="Times,serif" font-size="14.00" fill="#000000">v30 = v3 + v2 * v29</text>
</g>
<!-- N2&#45;&gt;N30 -->
<g id="edge37" class="edge">
<title>N2-&gt;N30</title>
<path fill="none" stroke="#000000" d="M1129.2857,-128.489C1137.1068,-125.13 1144.5467,-121.0156 1151.3446,-116 1181.4199,-93.8097 1157.4091,-62.3786 1187.3446,-40 1199.4193,-30.9734 1213.729,-25.0027 1228.5184,-21.1434"/>
<polygon fill="#000000" stroke="#000000" points="1229.3242,-24.5496 1238.2878,-18.9013 1227.7583,-17.727 1229.3242,-24.5496"/>
</g>
<!-- N3 -->
<g id="node4" class="node">
<title>N3</title>
<ellipse fill="none" stroke="#000000" cx="998.4437" cy="-98" rx="145.8165" ry="18"/>
<text text-anchor="middle" x="998.4437" y="-93.8" font-family="Times,serif" font-size="14.00" fill="#000000">v3 = parameters({1}) @ 0x97c620</text>
</g>
<!-- N3&#45;&gt;N9 -->
<g id="edge6" class="edge">
<title>N3-&gt;N9</title>
<path fill="none" stroke="#000000" d="M1129.416,-106.0896C1137.303,-109.7669 1144.7142,-114.3425 1151.3446,-120 1192.4087,-155.0388 1146.5012,-200.7042 1187.3446,-236 1201.5838,-248.3052 1219.8028,-255.2301 1238.365,-258.8887"/>
<polygon fill="#000000" stroke="#000000" points="1237.9463,-262.3671 1248.3853,-260.557 1239.096,-255.4621 1237.9463,-262.3671"/>
</g>
<!-- N3&#45;&gt;N16 -->
<g id="edge16" class="edge">
<title>N3-&gt;N16</title>
<path fill="none" stroke="#000000" d="M1120.0297,-108.0721C1130.9074,-111.1677 1141.5122,-115.0776 1151.3446,-120 1171.5781,-130.1295 1167.1751,-145.7437 1187.3446,-156 1200.873,-162.8792 1216.0066,-167.7226 1231.1927,-171.1113"/>
<polygon fill="#000000" stroke="#000000" points="1230.6669,-174.5759 1241.1633,-173.1349 1232.0592,-167.7157 1230.6669,-174.5759"/>
</g>
<!-- N3&#45;&gt;N23 -->
<g id="edge26" class="edge">
<title>N3-&gt;N23</title>
<path fill="none" stroke="#000000" d="M1144.3081,-98C1172.403,-98 1201.2369,-98 1227.4796,-98"/>
<polygon fill="#000000" stroke="#000000" points="1227.7855,-101.5001 1237.7854,-98 1227.7854,-94.5001 1227.7855,-101.5001"/>
</g>
<!-- N3&#45;&gt;N30 -->
<g id="edge36" class="edge">
<title>N3-&gt;N30</title>
<path fill="none" stroke="#000000" d="M1120.0297,-87.9279C1130.9074,-84.8323 1141.5122,-80.9224 1151.3446,-76 1171.5781,-65.8705 1167.1751,-50.2563 1187.3446,-40 1200.873,-33.1208 1216.0066,-28.2774 1231.1927,-24.8887"/>
<polygon fill="#000000" stroke="#000000" points="1232.0592,-28.2843 1241.1633,-22.8651 1230.6669,-21.4241 1232.0592,-28.2843"/>
</g>
<!-- N4 -->
<g id="node5" class="node">
<title>N4</title>
<ellipse fill="none" stroke="#000000" cx="152.9009" cy="-178" rx="83.8525" ry="18"/>
<text text-anchor="middle" x="152.9009" y="-173.8" font-family="Times,serif" font-size="14.00" fill="#000000">v4 = constant({2})</text>
</g>
<!-- N4&#45;&gt;N6 -->
<g id="edge2" class="edge">
<title>N4-&gt;N6</title>
<path fill="none" stroke="#000000" d="M236.8924,-178C292.5108,-178 364.6213,-178 417.1947,-178"/>
<polygon fill="#000000" stroke="#000000" points="417.4382,-181.5001 427.4382,-178 417.4381,-174.5001 417.4382,-181.5001"/>
</g>
<!-- N5 -->
<g id="node6" class="node">
<title>N5</title>
<ellipse fill="none" stroke="#000000" cx="1327.7223" cy="-298" rx="135.5986" ry="18"/>
<text text-anchor="middle" x="1327.7223" y="-293.8" font-family="Times,serif" font-size="14.00" fill="#000000">v5 = scalar_constant(0x97d020)</text>
</g>
<!-- N10 -->
<g id="node11" class="node">
<title>N10</title>
<ellipse fill="none" stroke="#000000" cx="1598.8169" cy="-258" rx="85.1198" ry="18"/>
<text text-anchor="middle" x="1598.8169" y="-253.8" font-family="Times,serif" font-size="14.00" fill="#000000">v10 = || v9 - v5 ||^2</text>
</g>
<!-- N5&#45;&gt;N10 -->
<g id="edge10" class="edge">
<title>N5-&gt;N10</title>
<path fill="none" stroke="#000000" d="M1418.7471,-284.5693C1451.2259,-279.7771 1487.5413,-274.4187 1519.0051,-269.7762"/>
<polygon fill="#000000" stroke="#000000" points="1519.6571,-273.218 1529.0391,-268.2957 1518.6353,-266.293 1519.6571,-273.218"/>
</g>
<!-- N6&#45;&gt;N7 -->
<g id="edge3" class="edge">
<title>N6-&gt;N7</title>
<path fill="none" stroke="#000000" d="M547.4692,-178C583.7998,-178 630.3246,-178 668.4606,-178"/>
<polygon fill="#000000" stroke="#000000" points="668.4701,-181.5001 678.4701,-178 668.47,-174.5001 668.4701,-181.5001"/>
</g>
<!-- N8 -->
<g id="node9" class="node">
<title>N8</title>
<ellipse fill="none" stroke="#000000" cx="998.4437" cy="-238" rx="70.8038" ry="18"/>
<text text-anchor="middle" x="998.4437" y="-233.8" font-family="Times,serif" font-size="14.00" fill="#000000">v8 = ReLU(v7)</text>
</g>
<!-- N7&#45;&gt;N8 -->
<g id="edge5" class="edge">
<title>N7-&gt;N8</title>
<path fill="none" stroke="#000000" d="M787.1578,-189.0748C829.1175,-198.791 890.4089,-212.9836 936.1841,-223.5832"/>
<polygon fill="#000000" stroke="#000000" points="935.4643,-227.0091 945.9961,-225.8553 937.0434,-220.1895 935.4643,-227.0091"/>
</g>
<!-- N8&#45;&gt;N9 -->
<g id="edge8" class="edge">
<title>N8-&gt;N9</title>
<path fill="none" stroke="#000000" d="M1067.4713,-242.1927C1117.6978,-245.2434 1186.0922,-249.3976 1240.1622,-252.6817"/>
<polygon fill="#000000" stroke="#000000" points="1240.2355,-256.1925 1250.4293,-253.3053 1240.6599,-249.2054 1240.2355,-256.1925"/>
</g>
<!-- N9&#45;&gt;N10 -->
<g id="edge9" class="edge">
<title>N9-&gt;N10</title>
<path fill="none" stroke="#000000" d="M1407.5934,-258C1437.6118,-258 1472.0397,-258 1503.3364,-258"/>
<polygon fill="#000000" stroke="#000000" points="1503.3782,-261.5001 1513.3781,-258 1503.3781,-254.5001 1503.3782,-261.5001"/>
</g>
<!-- N32 -->
<g id="node33" class="node">
<title>N32</title>
<ellipse fill="none" stroke="#000000" cx="1854.0934" cy="-158" rx="124.6194" ry="18"/>
<text text-anchor="middle" x="1854.0934" y="-153.8" font-family="Times,serif" font-size="14.00" fill="#000000">v32 = v10 + v17 + v24 + v31</text>
</g>
<!-- N10&#45;&gt;N32 -->
<g id="edge41" class="edge">
<title>N10-&gt;N32</title>
<path fill="none" stroke="#000000" d="M1639.2662,-242.1547C1683.1561,-224.9617 1753.3924,-197.4478 1801.5286,-178.5913"/>
<polygon fill="#000000" stroke="#000000" points="1802.8124,-181.8475 1810.8468,-174.9411 1800.2591,-175.3297 1802.8124,-181.8475"/>
</g>
<!-- N11 -->
<g id="node12" class="node">
<title>N11</title>
<ellipse fill="none" stroke="#000000" cx="152.9009" cy="-138" rx="88.509" ry="18"/>
<text text-anchor="middle" x="152.9009" y="-133.8" font-family="Times,serif" font-size="14.00" fill="#000000">v11 = constant({2})</text>
</g>
<!-- N11&#45;&gt;N13 -->
<g id="edge12" class="edge">
<title>N11-&gt;N13</title>
<path fill="none" stroke="#000000" d="M241.6782,-138C293.203,-138 357.5785,-138 407.5195,-138"/>
<polygon fill="#000000" stroke="#000000" points="407.627,-141.5001 417.6269,-138 407.6269,-134.5001 407.627,-141.5001"/>
</g>
<!-- N12 -->
<g id="node13" class="node">
<title>N12</title>
<ellipse fill="none" stroke="#000000" cx="1327.7223" cy="-218" rx="140.2556" ry="18"/>
<text text-anchor="middle" x="1327.7223" y="-213.8" font-family="Times,serif" font-size="14.00" fill="#000000">v12 = scalar_constant(0x97d5b0)</text>
</g>
<!-- N17 -->
<g id="node18" class="node">
<title>N17</title>
<ellipse fill="none" stroke="#000000" cx="1598.8169" cy="-178" rx="94.9342" ry="18"/>
<text text-anchor="middle" x="1598.8169" y="-173.8" font-family="Times,serif" font-size="14.00" fill="#000000">v17 = || v16 - v12 ||^2</text>
</g>
<!-- N12&#45;&gt;N17 -->
<g id="edge20" class="edge">
<title>N12-&gt;N17</title>
<path fill="none" stroke="#000000" d="M1419.8809,-204.402C1450.3585,-199.905 1484.1079,-194.9253 1514.0078,-190.5136"/>
<polygon fill="#000000" stroke="#000000" points="1514.608,-193.963 1523.9899,-189.0407 1513.5861,-187.038 1514.608,-193.963"/>
</g>
<!-- N13&#45;&gt;N14 -->
<g id="edge13" class="edge">
<title>N13-&gt;N14</title>
<path fill="none" stroke="#000000" d="M557.2855,-138C588.6824,-138 625.9281,-138 658.525,-138"/>
<polygon fill="#000000" stroke="#000000" points="658.9318,-141.5001 668.9318,-138 658.9317,-134.5001 658.9318,-141.5001"/>
</g>
<!-- N15 -->
<g id="node16" class="node">
<title>N15</title>
<ellipse fill="none" stroke="#000000" cx="998.4437" cy="-178" rx="80.1178" ry="18"/>
<text text-anchor="middle" x="998.4437" y="-173.8" font-family="Times,serif" font-size="14.00" fill="#000000">v15 = ReLU(v14)</text>
</g>
<!-- N14&#45;&gt;N15 -->
<g id="edge15" class="edge">
<title>N14-&gt;N15</title>
<path fill="none" stroke="#000000" d="M797.4447,-148.1182C813.0515,-150.7618 829.9295,-153.5541 845.5428,-156 869.6537,-159.777 895.9436,-163.6487 919.8166,-167.0705"/>
<polygon fill="#000000" stroke="#000000" points="919.4923,-170.5596 929.8865,-168.5078 920.4815,-163.6298 919.4923,-170.5596"/>
</g>
<!-- N15&#45;&gt;N16 -->
<g id="edge18" class="edge">
<title>N15-&gt;N16</title>
<path fill="none" stroke="#000000" d="M1078.9943,-178C1123.9656,-178 1180.3788,-178 1228.1062,-178"/>
<polygon fill="#000000" stroke="#000000" points="1228.1516,-181.5001 1238.1516,-178 1228.1515,-174.5001 1228.1516,-181.5001"/>
</g>
<!-- N16&#45;&gt;N17 -->
<g id="edge19" class="edge">
<title>N16-&gt;N17</title>
<path fill="none" stroke="#000000" d="M1417.6164,-178C1441.9998,-178 1468.6148,-178 1493.7544,-178"/>
<polygon fill="#000000" stroke="#000000" points="1494.0518,-181.5001 1504.0518,-178 1494.0517,-174.5001 1494.0518,-181.5001"/>
</g>
<!-- N17&#45;&gt;N32 -->
<g id="edge42" class="edge">
<title>N17-&gt;N32</title>
<path fill="none" stroke="#000000" d="M1686.6686,-171.1171C1702.0757,-169.91 1718.3422,-168.6356 1734.4387,-167.3745"/>
<polygon fill="#000000" stroke="#000000" points="1734.7339,-170.8622 1744.4299,-166.5917 1734.1871,-163.8836 1734.7339,-170.8622"/>
</g>
<!-- N18 -->
<g id="node19" class="node">
<title>N18</title>
<ellipse fill="none" stroke="#000000" cx="152.9009" cy="-58" rx="88.509" ry="18"/>
<text text-anchor="middle" x="152.9009" y="-53.8" font-family="Times,serif" font-size="14.00" fill="#000000">v18 = constant({2})</text>
</g>
<!-- N18&#45;&gt;N20 -->
<g id="edge22" class="edge">
<title>N18-&gt;N20</title>
<path fill="none" stroke="#000000" d="M241.6782,-58C293.203,-58 357.5785,-58 407.5195,-58"/>
<polygon fill="#000000" stroke="#000000" points="407.627,-61.5001 417.6269,-58 407.6269,-54.5001 407.627,-61.5001"/>
</g>
<!-- N19 -->
<g id="node20" class="node">
<title>N19</title>
<ellipse fill="none" stroke="#000000" cx="1327.7223" cy="-138" rx="140.2556" ry="18"/>
<text text-anchor="middle" x="1327.7223" y="-133.8" font-family="Times,serif" font-size="14.00" fill="#000000">v19 = scalar_constant(0x97db50)</text>
</g>
<!-- N24 -->
<g id="node25" class="node">
<title>N24</title>
<ellipse fill="none" stroke="#000000" cx="1598.8169" cy="-138" rx="94.9342" ry="18"/>
<text text-anchor="middle" x="1598.8169" y="-133.8" font-family="Times,serif" font-size="14.00" fill="#000000">v24 = || v23 - v19 ||^2</text>
</g>
<!-- N19&#45;&gt;N24 -->
<g id="edge30" class="edge">
<title>N19-&gt;N24</title>
<path fill="none" stroke="#000000" d="M1468.431,-138C1476.9552,-138 1485.4522,-138 1493.7868,-138"/>
<polygon fill="#000000" stroke="#000000" points="1493.8636,-141.5001 1503.8636,-138 1493.8636,-134.5001 1493.8636,-141.5001"/>
</g>
<!-- N20&#45;&gt;N21 -->
<g id="edge23" class="edge">
<title>N20-&gt;N21</title>
<path fill="none" stroke="#000000" d="M557.2855,-58C588.6824,-58 625.9281,-58 658.525,-58"/>
<polygon fill="#000000" stroke="#000000" points="658.9318,-61.5001 668.9318,-58 658.9317,-54.5001 658.9318,-61.5001"/>
</g>
<!-- N22 -->
<g id="node23" class="node">
<title>N22</title>
<ellipse fill="none" stroke="#000000" cx="998.4437" cy="-58" rx="80.1178" ry="18"/>
<text text-anchor="middle" x="998.4437" y="-53.8" font-family="Times,serif" font-size="14.00" fill="#000000">v22 = ReLU(v21)</text>
</g>
<!-- N21&#45;&gt;N22 -->
<g id="edge25" class="edge">
<title>N21-&gt;N22</title>
<path fill="none" stroke="#000000" d="M809.792,-58C839.9473,-58 875.5388,-58 907.6356,-58"/>
<polygon fill="#000000" stroke="#000000" points="907.9226,-61.5001 917.9226,-58 907.9226,-54.5001 907.9226,-61.5001"/>
</g>
<!-- N22&#45;&gt;N23 -->
<g id="edge28" class="edge">
<title>N22-&gt;N23</title>
<path fill="none" stroke="#000000" d="M1069.0822,-66.581C1119.3229,-72.6841 1187.1264,-80.9207 1240.7062,-87.4295"/>
<polygon fill="#000000" stroke="#000000" points="1240.5308,-90.9338 1250.8799,-88.6654 1241.375,-83.9849 1240.5308,-90.9338"/>
</g>
<!-- N23&#45;&gt;N24 -->
<g id="edge29" class="edge">
<title>N23-&gt;N24</title>
<path fill="none" stroke="#000000" d="M1400.0146,-108.6667C1434.9973,-113.8284 1477.2261,-120.0593 1513.75,-125.4484"/>
<polygon fill="#000000" stroke="#000000" points="1513.4857,-128.9472 1523.8895,-126.9445 1514.5076,-122.0222 1513.4857,-128.9472"/>
</g>
<!-- N24&#45;&gt;N32 -->
<g id="edge43" class="edge">
<title>N24-&gt;N32</title>
<path fill="none" stroke="#000000" d="M1686.6686,-144.8829C1702.0757,-146.09 1718.3422,-147.3644 1734.4387,-148.6255"/>
<polygon fill="#000000" stroke="#000000" points="1734.1871,-152.1164 1744.4299,-149.4083 1734.7339,-145.1378 1734.1871,-152.1164"/>
</g>
<!-- N25 -->
<g id="node26" class="node">
<title>N25</title>
<ellipse fill="none" stroke="#000000" cx="152.9009" cy="-18" rx="88.509" ry="18"/>
<text text-anchor="middle" x="152.9009" y="-13.8" font-family="Times,serif" font-size="14.00" fill="#000000">v25 = constant({2})</text>
</g>
<!-- N25&#45;&gt;N27 -->
<g id="edge32" class="edge">
<title>N25-&gt;N27</title>
<path fill="none" stroke="#000000" d="M241.6782,-18C293.203,-18 357.5785,-18 407.5195,-18"/>
<polygon fill="#000000" stroke="#000000" points="407.627,-21.5001 417.6269,-18 407.6269,-14.5001 407.627,-21.5001"/>
</g>
<!-- N26 -->
<g id="node27" class="node">
<title>N26</title>
<ellipse fill="none" stroke="#000000" cx="1327.7223" cy="-58" rx="139.6722" ry="18"/>
<text text-anchor="middle" x="1327.7223" y="-53.8" font-family="Times,serif" font-size="14.00" fill="#000000">v26 = scalar_constant(0x97e000)</text>
</g>
<!-- N31 -->
<g id="node32" class="node">
<title>N31</title>
<ellipse fill="none" stroke="#000000" cx="1598.8169" cy="-58" rx="94.9342" ry="18"/>
<text text-anchor="middle" x="1598.8169" y="-53.8" font-family="Times,serif" font-size="14.00" fill="#000000">v31 = || v30 - v26 ||^2</text>
</g>
<!-- N26&#45;&gt;N31 -->
<g id="edge40" class="edge">
<title>N26-&gt;N31</title>
<path fill="none" stroke="#000000" d="M1467.6372,-58C1476.4773,-58 1485.2927,-58 1493.9326,-58"/>
<polygon fill="#000000" stroke="#000000" points="1493.9856,-61.5001 1503.9856,-58 1493.9855,-54.5001 1493.9856,-61.5001"/>
</g>
<!-- N27&#45;&gt;N28 -->
<g id="edge33" class="edge">
<title>N27-&gt;N28</title>
<path fill="none" stroke="#000000" d="M557.2855,-18C588.6824,-18 625.9281,-18 658.525,-18"/>
<polygon fill="#000000" stroke="#000000" points="658.9318,-21.5001 668.9318,-18 658.9317,-14.5001 658.9318,-21.5001"/>
</g>
<!-- N29 -->
<g id="node30" class="node">
<title>N29</title>
<ellipse fill="none" stroke="#000000" cx="998.4437" cy="-18" rx="80.1178" ry="18"/>
<text text-anchor="middle" x="998.4437" y="-13.8" font-family="Times,serif" font-size="14.00" fill="#000000">v29 = ReLU(v28)</text>
</g>
<!-- N28&#45;&gt;N29 -->
<g id="edge35" class="edge">
<title>N28-&gt;N29</title>
<path fill="none" stroke="#000000" d="M809.792,-18C839.9473,-18 875.5388,-18 907.6356,-18"/>
<polygon fill="#000000" stroke="#000000" points="907.9226,-21.5001 917.9226,-18 907.9226,-14.5001 907.9226,-21.5001"/>
</g>
<!-- N29&#45;&gt;N30 -->
<g id="edge38" class="edge">
<title>N29-&gt;N30</title>
<path fill="none" stroke="#000000" d="M1078.9943,-18C1123.9656,-18 1180.3788,-18 1228.1062,-18"/>
<polygon fill="#000000" stroke="#000000" points="1228.1516,-21.5001 1238.1516,-18 1228.1515,-14.5001 1228.1516,-21.5001"/>
</g>
<!-- N30&#45;&gt;N31 -->
<g id="edge39" class="edge">
<title>N30-&gt;N31</title>
<path fill="none" stroke="#000000" d="M1400.0146,-28.6667C1434.9973,-33.8284 1477.2261,-40.0593 1513.75,-45.4484"/>
<polygon fill="#000000" stroke="#000000" points="1513.4857,-48.9472 1523.8895,-46.9445 1514.5076,-42.0222 1513.4857,-48.9472"/>
</g>
<!-- N31&#45;&gt;N32 -->
<g id="edge44" class="edge">
<title>N31-&gt;N32</title>
<path fill="none" stroke="#000000" d="M1640.3997,-74.2893C1684.2816,-91.4793 1753.565,-118.6198 1801.2813,-137.3118"/>
<polygon fill="#000000" stroke="#000000" points="1800.2332,-140.6601 1810.8209,-141.0487 1802.7864,-134.1424 1800.2332,-140.6601"/>
</g>
</g>
</svg>