<?xml version="1.0" encoding="UTF-8" standalone="no"?>
<!DOCTYPE svg PUBLIC "-//W3C//DTD SVG 1.1//EN" "http://www.w3.org/Graphics/SVG/1.1/DTD/svg11.dtd">
<!-- Generated by graphviz version 2.40.1 (20161225.0304)
 -->
<!-- Title: G Pages: 1 -->
<svg width="2340pt" height="164pt" viewBox="0.00 0.00 2339.96 164.00" xmlns="http://www.w3.org/2000/svg" xmlns:xlink="http://www.w3.org/1999/xlink">
<g id="graph0" class="graph" transform="scale(1 1) rotate(0) translate(4 160)">
<title>G</title>
<polygon fill="#ffffff" stroke="transparent" points="-4,4 -4,-160 2335.9563,-160 2335.9563,4 -4,4"/>
<!-- N0 -->
<g id="node1" class="node">
<title>N0</title>
<ellipse fill="none" stroke="#000000" cx="152.9009" cy="-138" rx="152.8018" ry="18"/>
<text text-anchor="middle" x="152.9009" y="-133.8" font-family="Times,serif" font-size="14.00" fill="#000000">v0 = parameters({8,2}) @ 0xb4e270</text>
</g>
<!-- N6 -->
<g id="node7" class="node">
<title>N6</title>
<ellipse fill="none" stroke="#000000" cx="487.46" cy="-118" rx="59.8767" ry="18"/>
<text text-anchor="middle" x="487.46" y="-113.8" font-family="Times,serif" font-size="14.00" fill="#000000">v6 = v0 * v4</text>
</g>
<!-- N0&#45;&gt;N6 -->
<g id="edge1" class="edge">
<title>N0-&gt;N6</title>
<path fill="none" stroke="#000000" d="M289.4614,-129.8364C333.7229,-127.1904 380.9557,-124.3668 418.1843,-122.1413"/>
<polygon fill="#000000" stroke="#000000" points="418.6353,-125.6207 428.4086,-121.5301 418.2176,-118.6332 418.6353,-125.6207"/>
</g>
<!-- N1 -->
<g id="node2" class="node">
<title>N1</title>
<ellipse fill="none" stroke="#000000" cx="487.46" cy="-78" rx="145.8165" ry="18"/>
<text text-anchor="middle" x="487.46" y="-73.8" font-family="Times,serif" font-size="14.00" fill="#000000">v1 = parameters({8}) @ 0xb4e3b0</text>
</g>
<!-- N7 -->
<g id="node8" class="node">
<title>N7</title>
<ellipse fill="none" stroke="#000000" cx="729.6735" cy="-98" rx="60.6108" ry="18"/>
<text text-anchor="middle" x="729.6735" y="-93.8" font-family="Times,serif" font-size="14.00" fill="#000000">v7 = v6 + v1</text>
</g>
<!-- N1&#45;&gt;N7 -->
<g id="edge4" class="edge">
<title>N1-&gt;N7</title>
<path fill="none" stroke="#000000" d="M608.9215,-88.0293C626.9074,-89.5144 644.8829,-90.9987 661.2611,-92.3511"/>
<polygon fill="#000000" stroke="#000000" points="660.9841,-95.84 671.2382,-93.1749 661.5602,-88.8638 660.9841,-95.84"/>
</g>
<!-- N2 -->
<g id="node3" class="node">
<title>N2</title>
<ellipse fill="none" stroke="#000000" cx="978.588" cy="-58" rx="152.2184" ry="18"/>
<text text-anchor="middle" x="978.588" y="-53.8" font-family="Times,serif" font-size="14.00" fill="#000000">v2 = parameters({1,8}) @ 0xb4e4e0</text>
</g>
<!-- N9 -->
<g id="node10" class="node">
<title>N9</title>
<ellipse fill="none" stroke="#000000" cx="1312.6054" cy="-78" rx="59.8767" ry="18"/>
<text text-anchor="middle" x="1312.6054" y="-73.8" font-family="Times,serif" font-size="14.00" fill="#000000">v9 = v2 * v8</text>
</g>
<!-- N2&#45;&gt;N9 -->
<g id="edge6" class="edge">
<title>N2-&gt;N9</title>
<path fill="none" stroke="#000000" d="M1114.9274,-66.1636C1159.1172,-68.8096 1206.2736,-71.6332 1243.4419,-73.8587"/>
<polygon fill="#000000" stroke="#000000" points="1243.4583,-77.3659 1253.6497,-74.4699 1243.8768,-70.3784 1243.4583,-77.3659"/>
</g>
<!-- N3 -->
<g id="node4" class="node">
<title>N3</title>
<ellipse fill="none" stroke="#000000" cx="1312.6054" cy="-38" rx="145.8165" ry="18"/>
<text text-anchor="middle" x="1312.6054" y="-33.8" font-family="Times,serif" font-size="14.00" fill="#000000">v3 = parameters({1}) @ 0xb4e680</text>
</g>
<!-- N10 -->
<g id="node11" class="node">
<title>N10</title>
<ellipse fill="none" stroke="#000000" cx="1589.7394" cy="-58" rx="65.2679" ry="18"/>
<text text-anchor="middle" x="1589.7394" y="-53.8" font-family="Times,serif" font-size="14.00" fill="#000000">v10 = v9 + v3</text>
</g>
<!-- N3&#45;&gt;N10 -->
<g id="edge9" class="edge">
<title>N3-&gt;N10</title>
<path fill="none" stroke="#000000" d="M1438.6031,-47.0929C1465.2521,-49.0161 1492.5264,-50.9844 1516.4396,-52.7102"/>
<polygon fill="#000000" stroke="#000000" points="1516.2447,-56.2051 1526.4707,-53.4341 1516.7486,-49.2233 1516.2447,-56.2051"/>
</g>
<!-- N4 -->
<g id="node5" class="node">
<title>N4</title>
<ellipse fill="none" stroke="#000000" cx="152.9009" cy="-98" rx="95.4517" ry="18"/>
<text text-anchor="middle" x="152.9009" y="-93.8" font-family="Times,serif" font-size="14.00" fill="#000000">v4 = constant({2X4})</text>
</g>
<!-- N4&#45;&gt;N6 -->
<g id="edge2" class="edge">
<title>N4-&gt;N6</title>
<path fill="none" stroke="#000000" d="M244.3206,-103.4651C299.2543,-106.749 368.0354,-110.8608 418.4107,-113.8722"/>
<polygon fill="#000000" stroke="#000000" points="418.3586,-117.3753 428.5496,-114.4783 418.7764,-110.3877 418.3586,-117.3753"/>
</g>
<!-- N5 -->
<g id="node6" class="node">
<title>N5</title>
<ellipse fill="none" stroke="#000000" cx="1589.7394" cy="-18" rx="95.4517" ry="18"/>
<text text-anchor="middle" x="1589.7394" y="-13.8" font-family="Times,serif" font-size="14.00" fill="#000000">v5 = constant({1X4})</text>
</g>
<!-- N11 -->
<g id="node12" class="node">
<title>N11</title>
<ellipse fill="none" stroke="#000000" cx="1811.1036" cy="-38" rx="89.7769" ry="18"/>
<text text-anchor="middle" x="1811.1036" y="-33.8" font-family="Times,serif" font-size="14.00" fill="#000000">v11 = || v10 - v5 ||^2</text>
</g>
<!-- N5&#45;&gt;N11 -->
<g id="edge11" class="edge">
<title>N5-&gt;N11</title>
<path fill="none" stroke="#000000" d="M1675.9584,-25.7898C1690.0253,-27.0607 1704.6472,-28.3818 1718.8523,-29.6652"/>
<polygon fill="#000000" stroke="#000000" points="1718.8338,-33.1777 1729.1082,-30.5918 1719.4638,-26.2061 1718.8338,-33.1777"/>
</g>
<!-- N6&#45;&gt;N7 -->
<g id="edge3" class="edge">
<title>N6-&gt;N7</title>
<path fill="none" stroke="#000000" d="M545.4761,-113.2095C580.2723,-110.3363 624.7091,-106.6671 661.2185,-103.6524"/>
<polygon fill="#000000" stroke="#000000" points="661.6132,-107.1319 671.2913,-102.8207 661.0371,-100.1556 661.6132,-107.1319"/>
</g>
<!-- N8 -->
<g id="node9" class="node">
<title>N8</title>
<ellipse fill="none" stroke="#000000" cx="978.588" cy="-98" rx="63.8632" ry="18"/>
<text text-anchor="middle" x="978.588" y="-93.8" font-family="Times,serif" font-size="14.00" fill="#000000">v8 = tanh(v7)</text>
</g>
<!-- N7&#45;&gt;N8 -->
<g id="edge5" class="edge">
<title>N7-&gt;N8</title>
<path fill="none" stroke="#000000" d="M790.2466,-98C824.7096,-98 868.1389,-98 904.6068,-98"/>
<polygon fill="#000000" stroke="#000000" points="904.6948,-101.5001 914.6948,-98 904.6947,-94.5001 904.6948,-101.5001"/>
</g>
<!-- N8&#45;&gt;N9 -->
<g id="edge7" class="edge">
<title>N8-&gt;N9</title>
<path fill="none" stroke="#000000" d="M1041.0223,-94.2616C1098.5871,-90.8148 1183.8878,-85.7072 1243.4852,-82.1387"/>
<polygon fill="#000000" stroke="#000000" points="1243.7872,-85.627 1253.5601,-81.5355 1243.3687,-78.6395 1243.7872,-85.627"/>
</g>
<!-- N9&#45;&gt;N10 -->
<g id="edge8" class="edge">
<title>N9-&gt;N10</title>
<path fill="none" stroke="#000000" d="M1371.0397,-73.783C1413.2644,-70.7357 1470.6143,-66.5969 1515.9923,-63.3221"/>
<polygon fill="#000000" stroke="#000000" points="1516.3489,-66.8056 1526.071,-62.5948 1515.8449,-59.8237 1516.3489,-66.8056"/>
</g>
<!-- N10&#45;&gt;N11 -->
<g id="edge10" class="edge">
<title>N10-&gt;N11</title>
<path fill="none" stroke="#000000" d="M1651.9908,-52.3757C1672.7281,-50.5021 1696.2909,-48.3732 1718.809,-46.3387"/>
<polygon fill="#000000" stroke="#000000" points="1719.4232,-49.7976 1729.0677,-45.4118 1718.7933,-42.826 1719.4232,-49.7976"/>
</g>
<!-- N12 -->
<g id="node13" class="node">
<title>N12</title>
<ellipse fill="none" stroke="#000000" cx="2134.4741" cy="-38" rx="197.4643" ry="18"/>
<text text-anchor="middle" x="2134.4741" y="-33.8" font-family="Times,serif" font-size="14.00" fill="#000000">v12 = moment_dim(expression=v11,}), order=1</text>
</g>
<!-- N11&#45;&gt;N12 -->
<g id="edge12" class="edge">
<title>N11-&gt;N12</title>
<path fill="none" stroke="#000000" d="M1901.1803,-38C1909.4629,-38 1918.0597,-38 1926.8542,-38"/>
<polygon fill="#000000" stroke="#000000" points="1926.8613,-41.5001 1936.8613,-38 1926.8612,-34.5001 1926.8613,-41.5001"/>
</g>
</g>
</svg>