<?xml version="1.0" encoding="UTF-8" standalone="no"?>
<!DOCTYPE svg PUBLIC "-//W3C//DTD SVG 1.1//EN"
 "http://www.w3.org/Graphics/SVG/1.1/DTD/svg11.dtd">
<!-- Generated by graphviz version 2.40.1 (20161225.0304)
 -->
<!-- Title: G Pages: 1 -->
<svg width="1950pt" height="144pt"
 viewBox="0.00 0.00 1950.25 144.00" xmlns="http://www.w3.org/2000/svg" xmlns:xlink="http://www.w3.org/1999/xlink">
<g id="graph0" class="graph" transform="scale(1 1) rotate(0) translate(4 140)">
<title>G</title>
<polygon fill="#ffffff" stroke="transparent" points="-4,4 -4,-140 1946.2468,-140 1946.2468,4 -4,4"/>
<!-- N0 -->
<g id="node1" class="node">
<title>N0</title>
<ellipse fill="none" stroke="#000000" cx="172.8847" cy="-118" rx="172.7694" ry="18"/>
<text text-anchor="middle" x="172.8847" y="-114.3" font-family="Times,serif" font-size="14.00" fill="#000000">v0 = parameters({16,4}) @ 0x55a1bc477d50</text>
</g>
<!-- N5 -->
<g id="node6" class="node">
<title>N5</title>
<ellipse fill="none" stroke="#000000" cx="546.8547" cy="-98" rx="56.59" ry="18"/>
<text text-anchor="middle" x="546.8547" y="-94.3" font-family="Times,serif" font-size="14.00" fill="#000000">v5 = v0 * v4</text>
</g>
<!-- N0&#45;&gt;N5 -->
<g id="edge1" class="edge">
<title>N0&#45;&gt;N5</title>
<path fill="none" stroke="#000000" d="M326.8816,-109.7642C380.4476,-106.8995 437.7435,-103.8353 480.4279,-101.5525"/>
<polygon fill="#000000" stroke="#000000" points="480.8791,-105.0335 490.6779,-101.0043 480.5052,-98.0435 480.8791,-105.0335"/>
</g>
<!-- N1 -->
<g id="node2" class="node">
<title>N1</title>
<ellipse fill="none" stroke="#000000" cx="546.8547" cy="-58" rx="165.1707" ry="18"/>
<text text-anchor="middle" x="546.8547" y="-54.3" font-family="Times,serif" font-size="14.00" fill="#000000">v1 = parameters({16}) @ 0x55a1bce13040</text>
</g>
<!-- N6 -->
<g id="node7" class="node">
<title>N6</title>
<ellipse fill="none" stroke="#000000" cx="805.7849" cy="-78" rx="57.6901" ry="18"/>
<text text-anchor="middle" x="805.7849" y="-74.3" font-family="Times,serif" font-size="14.00" fill="#000000">v6 = v5 + v1</text>
</g>
<!-- N1&#45;&gt;N6 -->
<g id="edge4" class="edge">
<title>N1&#45;&gt;N6</title>
<path fill="none" stroke="#000000" d="M681.6286,-68.4101C701.6592,-69.9572 721.5202,-71.4913 739.2891,-72.8638"/>
<polygon fill="#000000" stroke="#000000" points="739.255,-76.3715 749.4949,-73.6521 739.7942,-69.3923 739.255,-76.3715"/>
</g>
<!-- N2 -->
<g id="node3" class="node">
<title>N2</title>
<ellipse fill="none" stroke="#000000" cx="1070.5646" cy="-38" rx="170.8697" ry="18"/>
<text text-anchor="middle" x="1070.5646" y="-34.3" font-family="Times,serif" font-size="14.00" fill="#000000">v2 = parameters({3,16}) @ 0x55a1bce12f20</text>
</g>
<!-- N8 -->
<g id="node9" class="node">
<title>N8</title>
<ellipse fill="none" stroke="#000000" cx="1438.6851" cy="-58" rx="56.59" ry="18"/>
<text text-anchor="middle" x="1438.6851" y="-54.3" font-family="Times,serif" font-size="14.00" fill="#000000">v8 = v2 * v7</text>
</g>
<!-- N2&#45;&gt;N8 -->
<g id="edge6" class="edge">
<title>N2&#45;&gt;N8</title>
<path fill="none" stroke="#000000" d="M1222.6846,-46.2647C1274.9794,-49.1059 1330.8227,-52.1398 1372.6259,-54.411"/>
<polygon fill="#000000" stroke="#000000" points="1372.4948,-57.9089 1382.67,-54.9567 1372.8746,-50.9193 1372.4948,-57.9089"/>
</g>
<!-- N3 -->
<g id="node4" class="node">
<title>N3</title>
<ellipse fill="none" stroke="#000000" cx="1438.6851" cy="-18" rx="161.3716" ry="18"/>
<text text-anchor="middle" x="1438.6851" y="-14.3" font-family="Times,serif" font-size="14.00" fill="#000000">v3 = parameters({3}) @ 0x55a1bb62c660</text>
</g>
<!-- N9 -->
<g id="node10" class="node">
<title>N9</title>
<ellipse fill="none" stroke="#000000" cx="1693.7157" cy="-38" rx="57.6901" ry="18"/>
<text text-anchor="middle" x="1693.7157" y="-34.3" font-family="Times,serif" font-size="14.00" fill="#000000">v9 = v8 + v3</text>
</g>
<!-- N3&#45;&gt;N9 -->
<g id="edge9" class="edge">
<title>N3&#45;&gt;N9</title>
<path fill="none" stroke="#000000" d="M1570.6825,-28.3515C1590.3931,-29.8972 1609.9607,-31.4318 1627.4984,-32.8071"/>
<polygon fill="#000000" stroke="#000000" points="1627.3325,-36.3048 1637.5756,-33.5974 1627.8798,-29.3262 1627.3325,-36.3048"/>
</g>
<!-- N4 -->
<g id="node5" class="node">
<title>N4</title>
<ellipse fill="none" stroke="#000000" cx="172.8847" cy="-78" rx="77.9862" ry="18"/>
<text text-anchor="middle" x="172.8847" y="-74.3" font-family="Times,serif" font-size="14.00" fill="#000000">v4 = constant({4})</text>
</g>
<!-- N4&#45;&gt;N5 -->
<g id="edge2" class="edge">
<title>N4&#45;&gt;N5</title>
<path fill="none" stroke="#000000" d="M249.0138,-82.0714C317.1265,-85.7141 415.9538,-90.9994 480.7998,-94.4674"/>
<polygon fill="#000000" stroke="#000000" points="480.7328,-97.9687 490.9055,-95.0078 481.1067,-90.9787 480.7328,-97.9687"/>
</g>
<!-- N5&#45;&gt;N6 -->
<g id="edge3" class="edge">
<title>N5&#45;&gt;N6</title>
<path fill="none" stroke="#000000" d="M602.0841,-93.734C642.2347,-90.6328 696.7727,-86.4202 739.3128,-83.1344"/>
<polygon fill="#000000" stroke="#000000" points="739.5983,-86.6228 749.299,-82.363 739.0591,-79.6436 739.5983,-86.6228"/>
</g>
<!-- N7 -->
<g id="node8" class="node">
<title>N7</title>
<ellipse fill="none" stroke="#000000" cx="1070.5646" cy="-78" rx="65.7887" ry="18"/>
<text text-anchor="middle" x="1070.5646" y="-74.3" font-family="Times,serif" font-size="14.00" fill="#000000">v7 = ReLU(v6)</text>
</g>
<!-- N6&#45;&gt;N7 -->
<g id="edge5" class="edge">
<title>N6&#45;&gt;N7</title>
<path fill="none" stroke="#000000" d="M863.8919,-78C902.2853,-78 953.0022,-78 994.5858,-78"/>
<polygon fill="#000000" stroke="#000000" points="994.6735,-81.5001 1004.6735,-78 994.6734,-74.5001 994.6735,-81.5001"/>
</g>
<!-- N7&#45;&gt;N8 -->
<g id="edge7" class="edge">
<title>N7&#45;&gt;N8</title>
<path fill="none" stroke="#000000" d="M1135.1075,-74.4934C1201.7929,-70.8704 1305.3535,-65.2439 1372.6005,-61.5904"/>
<polygon fill="#000000" stroke="#000000" points="1372.8644,-65.0813 1382.6598,-61.0439 1372.4846,-58.0916 1372.8644,-65.0813"/>
</g>
<!-- N8&#45;&gt;N9 -->
<g id="edge8" class="edge">
<title>N8&#45;&gt;N9</title>
<path fill="none" stroke="#000000" d="M1493.709,-53.6849C1532.939,-50.6084 1585.8763,-46.457 1627.4346,-43.1979"/>
<polygon fill="#000000" stroke="#000000" points="1627.7725,-46.6822 1637.4682,-42.411 1627.2252,-39.7037 1627.7725,-46.6822"/>
</g>
<!-- N10 -->
<g id="node11" class="node">
<title>N10</title>
<ellipse fill="none" stroke="#000000" cx="1864.9037" cy="-38" rx="77.1866" ry="18"/>
<text text-anchor="middle" x="1864.9037" y="-34.3" font-family="Times,serif" font-size="14.00" fill="#000000">v10 = softmax(v9)</text>
</g>
<!-- N9&#45;&gt;N10 -->
<g id="edge10" class="edge">
<title>N9&#45;&gt;N10</title>
<path fill="none" stroke="#000000" d="M1751.6721,-38C1759.8988,-38 1768.507,-38 1777.1446,-38"/>
<polygon fill="#000000" stroke="#000000" points="1777.2769,-41.5001 1787.2768,-38 1777.2768,-34.5001 1777.2769,-41.5001"/>
</g>
</g>
</svg>
