<?xml version="1.0" encoding="UTF-8" standalone="no"?>
<!DOCTYPE svg PUBLIC "-//W3C//DTD SVG 1.1//EN"
 "http://www.w3.org/Graphics/SVG/1.1/DTD/svg11.dtd">
<!-- Generated by graphviz version 2.40.1 (20161225.0304)
 -->
<!-- Title: G Pages: 1 -->
<svg width="2088pt" height="164pt"
 viewBox="0.00 0.00 2087.64 164.00" xmlns="http://www.w3.org/2000/svg" xmlns:xlink="http://www.w3.org/1999/xlink">
<g id="graph0" class="graph" transform="scale(1 1) rotate(0) translate(4 160)">
<title>G</title>
<polygon fill="#ffffff" stroke="transparent" points="-4,4 -4,-160 2083.6378,-160 2083.6378,4 -4,4"/>
<!-- N0 -->
<g id="node1" class="node">
<title>N0</title>
<ellipse fill="none" stroke="#000000" cx="149.4867" cy="-138" rx="149.4735" ry="18"/>
<text text-anchor="middle" x="149.4867" y="-134.3" font-family="Times,serif" font-size="14.00" fill="#000000">v0 = parameters({16,4}) @ 0x23bfaa0</text>
</g>
<!-- N5 -->
<g id="node6" class="node">
<title>N5</title>
<ellipse fill="none" stroke="#000000" cx="477.9608" cy="-118" rx="56.59" ry="18"/>
<text text-anchor="middle" x="477.9608" y="-114.3" font-family="Times,serif" font-size="14.00" fill="#000000">v5 = v0 * v4</text>
</g>
<!-- N0&#45;&gt;N5 -->
<g id="edge1" class="edge">
<title>N0&#45;&gt;N5</title>
<path fill="none" stroke="#000000" d="M283.0897,-129.8652C327.5744,-127.1567 375.1677,-124.2588 412.184,-122.005"/>
<polygon fill="#000000" stroke="#000000" points="412.5638,-125.4884 422.3326,-121.3871 412.1383,-118.5014 412.5638,-125.4884"/>
</g>
<!-- N1 -->
<g id="node2" class="node">
<title>N1</title>
<ellipse fill="none" stroke="#000000" cx="477.9608" cy="-78" rx="142.9746" ry="18"/>
<text text-anchor="middle" x="477.9608" y="-74.3" font-family="Times,serif" font-size="14.00" fill="#000000">v1 = parameters({16}) @ 0x23bfbe0</text>
</g>
<!-- N6 -->
<g id="node7" class="node">
<title>N6</title>
<ellipse fill="none" stroke="#000000" cx="714.793" cy="-98" rx="57.6901" ry="18"/>
<text text-anchor="middle" x="714.793" y="-94.3" font-family="Times,serif" font-size="14.00" fill="#000000">v6 = v5 + v1</text>
</g>
<!-- N1&#45;&gt;N6 -->
<g id="edge4" class="edge">
<title>N1&#45;&gt;N6</title>
<path fill="none" stroke="#000000" d="M596.7238,-88.0293C614.5229,-89.5324 632.3115,-91.0346 648.4811,-92.4001"/>
<polygon fill="#000000" stroke="#000000" points="648.5978,-95.9223 658.8569,-93.2763 649.1869,-88.9472 648.5978,-95.9223"/>
</g>
<!-- N2 -->
<g id="node3" class="node">
<title>N2</title>
<ellipse fill="none" stroke="#000000" cx="958.7745" cy="-58" rx="150.2735" ry="18"/>
<text text-anchor="middle" x="958.7745" y="-54.3" font-family="Times,serif" font-size="14.00" fill="#000000">v2 = parameters({3,16}) @ 0x23bccc0</text>
</g>
<!-- N8 -->
<g id="node9" class="node">
<title>N8</title>
<ellipse fill="none" stroke="#000000" cx="1284.6488" cy="-78" rx="56.59" ry="18"/>
<text text-anchor="middle" x="1284.6488" y="-74.3" font-family="Times,serif" font-size="14.00" fill="#000000">v8 = v2 * v7</text>
</g>
<!-- N2&#45;&gt;N8 -->
<g id="edge6" class="edge">
<title>N2&#45;&gt;N8</title>
<path fill="none" stroke="#000000" d="M1092.7308,-66.2213C1136.0301,-68.8788 1182.1508,-71.7094 1218.3257,-73.9295"/>
<polygon fill="#000000" stroke="#000000" points="1218.5397,-77.4492 1228.7354,-74.5684 1218.9686,-70.4623 1218.5397,-77.4492"/>
</g>
<!-- N3 -->
<g id="node4" class="node">
<title>N3</title>
<ellipse fill="none" stroke="#000000" cx="1284.6488" cy="-38" rx="139.9756" ry="18"/>
<text text-anchor="middle" x="1284.6488" y="-34.3" font-family="Times,serif" font-size="14.00" fill="#000000">v3 = parameters({3}) @ 0x23bcdc0</text>
</g>
<!-- N9 -->
<g id="node10" class="node">
<title>N9</title>
<ellipse fill="none" stroke="#000000" cx="1518.2313" cy="-58" rx="57.6901" ry="18"/>
<text text-anchor="middle" x="1518.2313" y="-54.3" font-family="Times,serif" font-size="14.00" fill="#000000">v9 = v8 + v3</text>
</g>
<!-- N3&#45;&gt;N9 -->
<g id="edge9" class="edge">
<title>N3&#45;&gt;N9</title>
<path fill="none" stroke="#000000" d="M1401.0979,-47.9707C1418.6277,-49.4717 1436.1677,-50.9735 1452.1384,-52.3409"/>
<polygon fill="#000000" stroke="#000000" points="1452.1287,-55.8528 1462.3909,-53.2188 1452.726,-48.8784 1452.1287,-55.8528"/>
</g>
<!-- N4 -->
<g id="node5" class="node">
<title>N4</title>
<ellipse fill="none" stroke="#000000" cx="149.4867" cy="-98" rx="77.9862" ry="18"/>
<text text-anchor="middle" x="149.4867" y="-94.3" font-family="Times,serif" font-size="14.00" fill="#000000">v4 = constant({4})</text>
</g>
<!-- N4&#45;&gt;N5 -->
<g id="edge2" class="edge">
<title>N4&#45;&gt;N5</title>
<path fill="none" stroke="#000000" d="M225.2578,-102.6135C281.7708,-106.0545 358.2028,-110.7082 412.1654,-113.9939"/>
<polygon fill="#000000" stroke="#000000" points="412.1133,-117.4971 422.3075,-114.6114 412.5388,-110.51 412.1133,-117.4971"/>
</g>
<!-- N5&#45;&gt;N6 -->
<g id="edge3" class="edge">
<title>N5&#45;&gt;N6</title>
<path fill="none" stroke="#000000" d="M532.8901,-113.3613C567.4882,-110.4396 612.352,-106.6509 648.8672,-103.5673"/>
<polygon fill="#000000" stroke="#000000" points="649.2595,-107.0467 658.9295,-102.7176 648.6704,-100.0715 649.2595,-107.0467"/>
</g>
<!-- N7 -->
<g id="node8" class="node">
<title>N7</title>
<ellipse fill="none" stroke="#000000" cx="958.7745" cy="-98" rx="65.7887" ry="18"/>
<text text-anchor="middle" x="958.7745" y="-94.3" font-family="Times,serif" font-size="14.00" fill="#000000">v7 = ReLU(v6)</text>
</g>
<!-- N6&#45;&gt;N7 -->
<g id="edge5" class="edge">
<title>N6&#45;&gt;N7</title>
<path fill="none" stroke="#000000" d="M772.9226,-98C805.7632,-98 847.2029,-98 882.6141,-98"/>
<polygon fill="#000000" stroke="#000000" points="882.9104,-101.5001 892.9103,-98 882.9103,-94.5001 882.9104,-101.5001"/>
</g>
<!-- N7&#45;&gt;N8 -->
<g id="edge7" class="edge">
<title>N7&#45;&gt;N8</title>
<path fill="none" stroke="#000000" d="M1023.1568,-94.0486C1079.8508,-90.5691 1162.0442,-85.5247 1219.0881,-82.0237"/>
<polygon fill="#000000" stroke="#000000" points="1219.3134,-85.5165 1229.0802,-81.4104 1218.8845,-78.5297 1219.3134,-85.5165"/>
</g>
<!-- N8&#45;&gt;N9 -->
<g id="edge8" class="edge">
<title>N8&#45;&gt;N9</title>
<path fill="none" stroke="#000000" d="M1339.4135,-73.3109C1373.0412,-70.4316 1416.3336,-66.7248 1451.898,-63.6796"/>
<polygon fill="#000000" stroke="#000000" points="1452.5224,-67.1391 1462.1873,-62.7986 1451.9251,-60.1646 1452.5224,-67.1391"/>
</g>
<!-- N10 -->
<g id="node11" class="node">
<title>N10</title>
<ellipse fill="none" stroke="#000000" cx="1689.4193" cy="-58" rx="77.1866" ry="18"/>
<text text-anchor="middle" x="1689.4193" y="-54.3" font-family="Times,serif" font-size="14.00" fill="#000000">v10 = softmax(v9)</text>
</g>
<!-- N9&#45;&gt;N10 -->
<g id="edge10" class="edge">
<title>N9&#45;&gt;N10</title>
<path fill="none" stroke="#000000" d="M1576.1877,-58C1584.4143,-58 1593.0226,-58 1601.6602,-58"/>
<polygon fill="#000000" stroke="#000000" points="1601.7924,-61.5001 1611.7924,-58 1601.7924,-54.5001 1601.7924,-61.5001"/>
</g>
<!-- N11 -->
<g id="node12" class="node">
<title>N11</title>
<ellipse fill="none" stroke="#000000" cx="1941.2001" cy="-98" rx="138.3755" ry="18"/>
<text text-anchor="middle" x="1941.2001" y="-94.3" font-family="Times,serif" font-size="14.00" fill="#000000">v11 = pickneglogsoftmax(v10)_{0}</text>
</g>
<!-- N10&#45;&gt;N11 -->
<g id="edge11" class="edge">
<title>N10&#45;&gt;N11</title>
<path fill="none" stroke="#000000" d="M1753.6057,-68.1972C1780.8326,-72.5227 1813.1754,-77.6609 1843.2723,-82.4424"/>
<polygon fill="#000000" stroke="#000000" points="1842.9571,-85.9361 1853.3824,-84.0486 1844.0555,-79.0228 1842.9571,-85.9361"/>
</g>
<!-- N12 -->
<g id="node13" class="node">
<title>N12</title>
<ellipse fill="none" stroke="#000000" cx="1941.2001" cy="-58" rx="138.3755" ry="18"/>
<text text-anchor="middle" x="1941.2001" y="-54.3" font-family="Times,serif" font-size="14.00" fill="#000000">v12 = pickneglogsoftmax(v10)_{1}</text>
</g>
<!-- N10&#45;&gt;N12 -->
<g id="edge12" class="edge">
<title>N10&#45;&gt;N12</title>
<path fill="none" stroke="#000000" d="M1767.0163,-58C1775.2206,-58 1783.7475,-58 1792.4245,-58"/>
<polygon fill="#000000" stroke="#000000" points="1792.6692,-61.5001 1802.6692,-58 1792.6692,-54.5001 1792.6692,-61.5001"/>
</g>
<!-- N13 -->
<g id="node14" class="node">
<title>N13</title>
<ellipse fill="none" stroke="#000000" cx="1941.2001" cy="-18" rx="138.3755" ry="18"/>
<text text-anchor="middle" x="1941.2001" y="-14.3" font-family="Times,serif" font-size="14.00" fill="#000000">v13 = pickneglogsoftmax(v10)_{2}</text>
</g>
<!-- N10&#45;&gt;N13 -->
<g id="edge13" class="edge">
<title>N10&#45;&gt;N13</title>
<path fill="none" stroke="#000000" d="M1753.6057,-47.8028C1780.8326,-43.4773 1813.1754,-38.3391 1843.2723,-33.5576"/>
<polygon fill="#000000" stroke="#000000" points="1844.0555,-36.9772 1853.3824,-31.9514 1842.9571,-30.0639 1844.0555,-36.9772"/>
</g>
</g>
</svg>
