<?xml version="1.0" encoding="UTF-8" standalone="no"?>
<!DOCTYPE svg PUBLIC "-//W3C//DTD SVG 1.1//EN"
 "http://www.w3.org/Graphics/SVG/1.1/DTD/svg11.dtd">
<!-- Generated by graphviz version 2.40.1 (20161225.0304)
 -->
<!-- Title: G Pages: 1 -->
<svg width="2105pt" height="164pt"
 viewBox="0.00 0.00 2104.54 164.00" xmlns="http://www.w3.org/2000/svg" xmlns:xlink="http://www.w3.org/1999/xlink">
<g id="graph0" class="graph" transform="scale(1 1) rotate(0) translate(4 160)">
<title>G</title>
<polygon fill="#ffffff" stroke="transparent" points="-4,4 -4,-160 2100.5363,-160 2100.5363,4 -4,4"/>
<!-- N0 -->
<g id="node1" class="node">
<title>N0</title>
<ellipse fill="none" stroke="#000000" cx="150.1367" cy="-138" rx="150.2735" ry="18"/>
<text text-anchor="middle" x="150.1367" y="-134.3" font-family="Times,serif" font-size="14.00" fill="#000000">v0 = parameters({8,4}) @ 0x31e54ea0</text>
</g>
<!-- N5 -->
<g id="node6" class="node">
<title>N5</title>
<ellipse fill="none" stroke="#000000" cx="481.2105" cy="-118" rx="56.59" ry="18"/>
<text text-anchor="middle" x="481.2105" y="-114.3" font-family="Times,serif" font-size="14.00" fill="#000000">v5 = v0 * v4</text>
</g>
<!-- N0&#45;&gt;N5 -->
<g id="edge1" class="edge">
<title>N0&#45;&gt;N5</title>
<path fill="none" stroke="#000000" d="M284.3198,-129.8941C329.3758,-127.1723 377.6484,-124.2561 415.1192,-121.9925"/>
<polygon fill="#000000" stroke="#000000" points="415.6191,-125.4688 425.3898,-121.3721 415.197,-118.4816 415.6191,-125.4688"/>
</g>
<!-- N1 -->
<g id="node2" class="node">
<title>N1</title>
<ellipse fill="none" stroke="#000000" cx="481.2105" cy="-78" rx="144.8743" ry="18"/>
<text text-anchor="middle" x="481.2105" y="-74.3" font-family="Times,serif" font-size="14.00" fill="#000000">v1 = parameters({8}) @ 0x32d11120</text>
</g>
<!-- N6 -->
<g id="node7" class="node">
<title>N6</title>
<ellipse fill="none" stroke="#000000" cx="719.9925" cy="-98" rx="57.6901" ry="18"/>
<text text-anchor="middle" x="719.9925" y="-94.3" font-family="Times,serif" font-size="14.00" fill="#000000">v6 = v5 + v1</text>
</g>
<!-- N1&#45;&gt;N6 -->
<g id="edge4" class="edge">
<title>N1&#45;&gt;N6</title>
<path fill="none" stroke="#000000" d="M601.6508,-88.0879C619.5256,-89.5851 637.3691,-91.0796 653.5784,-92.4373"/>
<polygon fill="#000000" stroke="#000000" points="653.7208,-95.9614 663.9781,-93.3083 654.3052,-88.9858 653.7208,-95.9614"/>
</g>
<!-- N2 -->
<g id="node3" class="node">
<title>N2</title>
<ellipse fill="none" stroke="#000000" cx="965.2739" cy="-58" rx="151.3732" ry="18"/>
<text text-anchor="middle" x="965.2739" y="-54.3" font-family="Times,serif" font-size="14.00" fill="#000000">v2 = parameters({3,8}) @ 0x32d11000</text>
</g>
<!-- N8 -->
<g id="node9" class="node">
<title>N8</title>
<ellipse fill="none" stroke="#000000" cx="1296.9977" cy="-78" rx="56.59" ry="18"/>
<text text-anchor="middle" x="1296.9977" y="-74.3" font-family="Times,serif" font-size="14.00" fill="#000000">v8 = v2 * v7</text>
</g>
<!-- N2&#45;&gt;N8 -->
<g id="edge6" class="edge">
<title>N2&#45;&gt;N8</title>
<path fill="none" stroke="#000000" d="M1100.6771,-66.1636C1145.7098,-68.8787 1193.8445,-71.7808 1231.1811,-74.0318"/>
<polygon fill="#000000" stroke="#000000" points="1231.2215,-77.5405 1241.414,-74.6488 1231.6428,-70.5532 1231.2215,-77.5405"/>
</g>
<!-- N3 -->
<g id="node4" class="node">
<title>N3</title>
<ellipse fill="none" stroke="#000000" cx="1296.9977" cy="-38" rx="144.0747" ry="18"/>
<text text-anchor="middle" x="1296.9977" y="-34.3" font-family="Times,serif" font-size="14.00" fill="#000000">v3 = parameters({3}) @ 0x31bb48e0</text>
</g>
<!-- N9 -->
<g id="node10" class="node">
<title>N9</title>
<ellipse fill="none" stroke="#000000" cx="1535.1298" cy="-58" rx="57.6901" ry="18"/>
<text text-anchor="middle" x="1535.1298" y="-54.3" font-family="Times,serif" font-size="14.00" fill="#000000">v9 = v8 + v3</text>
</g>
<!-- N3&#45;&gt;N9 -->
<g id="edge9" class="edge">
<title>N3&#45;&gt;N9</title>
<path fill="none" stroke="#000000" d="M1416.7614,-48.0586C1434.6229,-49.5587 1452.4635,-51.0571 1468.6753,-52.4187"/>
<polygon fill="#000000" stroke="#000000" points="1468.8195,-55.943 1479.0773,-53.2923 1469.4054,-48.9676 1468.8195,-55.943"/>
</g>
<!-- N4 -->
<g id="node5" class="node">
<title>N4</title>
<ellipse fill="none" stroke="#000000" cx="150.1367" cy="-98" rx="77.9862" ry="18"/>
<text text-anchor="middle" x="150.1367" y="-94.3" font-family="Times,serif" font-size="14.00" fill="#000000">v4 = constant({4})</text>
</g>
<!-- N4&#45;&gt;N5 -->
<g id="edge2" class="edge">
<title>N4&#45;&gt;N5</title>
<path fill="none" stroke="#000000" d="M225.6767,-102.5633C282.8705,-106.0184 360.6573,-110.7174 415.3352,-114.0205"/>
<polygon fill="#000000" stroke="#000000" points="415.4145,-117.5316 425.6074,-114.641 415.8366,-110.5443 415.4145,-117.5316"/>
</g>
<!-- N5&#45;&gt;N6 -->
<g id="edge3" class="edge">
<title>N5&#45;&gt;N6</title>
<path fill="none" stroke="#000000" d="M535.9919,-113.4116C570.9799,-110.4811 616.5615,-106.6632 653.6031,-103.5607"/>
<polygon fill="#000000" stroke="#000000" points="654.1354,-107.0284 663.8083,-102.7059 653.5511,-100.0529 654.1354,-107.0284"/>
</g>
<!-- N7 -->
<g id="node8" class="node">
<title>N7</title>
<ellipse fill="none" stroke="#000000" cx="965.2739" cy="-98" rx="65.7887" ry="18"/>
<text text-anchor="middle" x="965.2739" y="-94.3" font-family="Times,serif" font-size="14.00" fill="#000000">v7 = ReLU(v6)</text>
</g>
<!-- N6&#45;&gt;N7 -->
<g id="edge5" class="edge">
<title>N6&#45;&gt;N7</title>
<path fill="none" stroke="#000000" d="M778.1208,-98C811.2579,-98 853.1794,-98 888.9425,-98"/>
<polygon fill="#000000" stroke="#000000" points="889.3389,-101.5001 899.3389,-98 889.3388,-94.5001 889.3389,-101.5001"/>
</g>
<!-- N7&#45;&gt;N8 -->
<g id="edge7" class="edge">
<title>N7&#45;&gt;N8</title>
<path fill="none" stroke="#000000" d="M1029.6269,-94.1201C1087.6592,-90.6213 1172.6296,-85.4983 1231.126,-81.9715"/>
<polygon fill="#000000" stroke="#000000" points="1231.5935,-85.4497 1241.3647,-81.3542 1231.1722,-78.4624 1231.5935,-85.4497"/>
</g>
<!-- N8&#45;&gt;N9 -->
<g id="edge8" class="edge">
<title>N8&#45;&gt;N9</title>
<path fill="none" stroke="#000000" d="M1351.929,-73.3865C1386.8324,-70.4551 1432.2164,-66.6434 1469.0803,-63.5473"/>
<polygon fill="#000000" stroke="#000000" points="1469.5641,-67.0191 1479.2361,-62.6943 1468.9782,-60.0436 1469.5641,-67.0191"/>
</g>
<!-- N10 -->
<g id="node11" class="node">
<title>N10</title>
<ellipse fill="none" stroke="#000000" cx="1706.3178" cy="-58" rx="77.1866" ry="18"/>
<text text-anchor="middle" x="1706.3178" y="-54.3" font-family="Times,serif" font-size="14.00" fill="#000000">v10 = softmax(v9)</text>
</g>
<!-- N9&#45;&gt;N10 -->
<g id="edge10" class="edge">
<title>N9&#45;&gt;N10</title>
<path fill="none" stroke="#000000" d="M1593.0862,-58C1601.3128,-58 1609.9211,-58 1618.5587,-58"/>
<polygon fill="#000000" stroke="#000000" points="1618.6909,-61.5001 1628.6909,-58 1618.6909,-54.5001 1618.6909,-61.5001"/>
</g>
<!-- N11 -->
<g id="node12" class="node">
<title>N11</title>
<ellipse fill="none" stroke="#000000" cx="1958.0986" cy="-98" rx="138.3755" ry="18"/>
<text text-anchor="middle" x="1958.0986" y="-94.3" font-family="Times,serif" font-size="14.00" fill="#000000">v11 = pickneglogsoftmax(v10)_{0}</text>
</g>
<!-- N10&#45;&gt;N11 -->
<g id="edge11" class="edge">
<title>N10&#45;&gt;N11</title>
<path fill="none" stroke="#000000" d="M1770.5042,-68.1972C1797.7311,-72.5227 1830.0739,-77.6609 1860.1708,-82.4424"/>
<polygon fill="#000000" stroke="#000000" points="1859.8556,-85.9361 1870.2809,-84.0486 1860.954,-79.0228 1859.8556,-85.9361"/>
</g>
<!-- N12 -->
<g id="node13" class="node">
<title>N12</title>
<ellipse fill="none" stroke="#000000" cx="1958.0986" cy="-58" rx="138.3755" ry="18"/>
<text text-anchor="middle" x="1958.0986" y="-54.3" font-family="Times,serif" font-size="14.00" fill="#000000">v12 = pickneglogsoftmax(v10)_{1}</text>
</g>
<!-- N10&#45;&gt;N12 -->
<g id="edge12" class="edge">
<title>N10&#45;&gt;N12</title>
<path fill="none" stroke="#000000" d="M1783.9148,-58C1792.1191,-58 1800.646,-58 1809.323,-58"/>
<polygon fill="#000000" stroke="#000000" points="1809.5677,-61.5001 1819.5677,-58 1809.5677,-54.5001 1809.5677,-61.5001"/>
</g>
<!-- N13 -->
<g id="node14" class="node">
<title>N13</title>
<ellipse fill="none" stroke="#000000" cx="1958.0986" cy="-18" rx="138.3755" ry="18"/>
<text text-anchor="middle" x="1958.0986" y="-14.3" font-family="Times,serif" font-size="14.00" fill="#000000">v13 = pickneglogsoftmax(v10)_{2}</text>
</g>
<!-- N10&#45;&gt;N13 -->
<g id="edge13" class="edge">
<title>N10&#45;&gt;N13</title>
<path fill="none" stroke="#000000" d="M1770.5042,-47.8028C1797.7311,-43.4773 1830.0739,-38.3391 1860.1708,-33.5576"/>
<polygon fill="#000000" stroke="#000000" points="1860.954,-36.9772 1870.2809,-31.9514 1859.8556,-30.0639 1860.954,-36.9772"/>
</g>
</g>
</svg>
