<?xml version="1.0" encoding="UTF-8" standalone="no"?>
<!DOCTYPE svg PUBLIC "-//W3C//DTD SVG 1.1//EN"
 "http://www.w3.org/Graphics/SVG/1.1/DTD/svg11.dtd">
<!-- Generated by graphviz version 2.40.1 (20161225.0304)
 -->
<!-- Title: G Pages: 1 -->
<svg width="2115pt" height="164pt"
 viewBox="0.00 0.00 2115.33 164.00" xmlns="http://www.w3.org/2000/svg" xmlns:xlink="http://www.w3.org/1999/xlink">
<g id="graph0" class="graph" transform="scale(1 1) rotate(0) translate(4 160)">
<title>G</title>
<polygon fill="#ffffff" stroke="transparent" points="-4,4 -4,-160 2111.3322,-160 2111.3322,4 -4,4"/>
<!-- N0 -->
<g id="node1" class="node">
<title>N0</title>
<ellipse fill="none" stroke="#000000" cx="167.0352" cy="-138" rx="167.0704" ry="18"/>
<text text-anchor="middle" x="167.0352" y="-134.3" font-family="Times,serif" font-size="14.00" fill="#000000">v0 = parameters({2,2}) @ 0x55ba1c4f6590</text>
</g>
<!-- N6 -->
<g id="node7" class="node">
<title>N6</title>
<ellipse fill="none" stroke="#000000" cx="531.2561" cy="-118" rx="56.59" ry="18"/>
<text text-anchor="middle" x="531.2561" y="-114.3" font-family="Times,serif" font-size="14.00" fill="#000000">v6 = v0 * v4</text>
</g>
<!-- N0&#45;&gt;N6 -->
<g id="edge1" class="edge">
<title>N0&#45;&gt;N6</title>
<path fill="none" stroke="#000000" d="M315.9658,-129.822C367.9046,-126.9699 423.5702,-123.9132 465.2847,-121.6226"/>
<polygon fill="#000000" stroke="#000000" points="465.5157,-125.1153 475.3087,-121.0722 465.1318,-118.1258 465.5157,-125.1153"/>
</g>
<!-- N1 -->
<g id="node2" class="node">
<title>N1</title>
<ellipse fill="none" stroke="#000000" cx="531.2561" cy="-78" rx="161.3716" ry="18"/>
<text text-anchor="middle" x="531.2561" y="-74.3" font-family="Times,serif" font-size="14.00" fill="#000000">v1 = parameters({2}) @ 0x55ba1c97e550</text>
</g>
<!-- N7 -->
<g id="node8" class="node">
<title>N7</title>
<ellipse fill="none" stroke="#000000" cx="786.2866" cy="-98" rx="57.6901" ry="18"/>
<text text-anchor="middle" x="786.2866" y="-94.3" font-family="Times,serif" font-size="14.00" fill="#000000">v7 = v6 + v1</text>
</g>
<!-- N1&#45;&gt;N7 -->
<g id="edge4" class="edge">
<title>N1&#45;&gt;N7</title>
<path fill="none" stroke="#000000" d="M663.2535,-88.3515C682.964,-89.8972 702.5316,-91.4318 720.0694,-92.8071"/>
<polygon fill="#000000" stroke="#000000" points="719.9034,-96.3048 730.1465,-93.5974 720.4508,-89.3262 719.9034,-96.3048"/>
</g>
<!-- N2 -->
<g id="node3" class="node">
<title>N2</title>
<ellipse fill="none" stroke="#000000" cx="1047.8166" cy="-58" rx="167.8704" ry="18"/>
<text text-anchor="middle" x="1047.8166" y="-54.3" font-family="Times,serif" font-size="14.00" fill="#000000">v2 = parameters({1,2}) @ 0x55ba1c97e430</text>
</g>
<!-- N9 -->
<g id="node10" class="node">
<title>N9</title>
<ellipse fill="none" stroke="#000000" cx="1412.6874" cy="-78" rx="56.59" ry="18"/>
<text text-anchor="middle" x="1412.6874" y="-74.3" font-family="Times,serif" font-size="14.00" fill="#000000">v9 = v2 * v8</text>
</g>
<!-- N2&#45;&gt;N9 -->
<g id="edge6" class="edge">
<title>N2&#45;&gt;N9</title>
<path fill="none" stroke="#000000" d="M1197.2763,-66.1925C1249.275,-69.0427 1304.9709,-72.0956 1346.7007,-74.383"/>
<polygon fill="#000000" stroke="#000000" points="1346.5515,-77.88 1356.7281,-74.9327 1346.9347,-70.8905 1346.5515,-77.88"/>
</g>
<!-- N3 -->
<g id="node4" class="node">
<title>N3</title>
<ellipse fill="none" stroke="#000000" cx="1412.6874" cy="-38" rx="161.3716" ry="18"/>
<text text-anchor="middle" x="1412.6874" y="-34.3" font-family="Times,serif" font-size="14.00" fill="#000000">v3 = parameters({1}) @ 0x55ba1ab0c400</text>
</g>
<!-- N10 -->
<g id="node11" class="node">
<title>N10</title>
<ellipse fill="none" stroke="#000000" cx="1755.4602" cy="-58" rx="61.99" ry="18"/>
<text text-anchor="middle" x="1755.4602" y="-54.3" font-family="Times,serif" font-size="14.00" fill="#000000">v10 = v9 + v3</text>
</g>
<!-- N3&#45;&gt;N10 -->
<g id="edge9" class="edge">
<title>N3&#45;&gt;N10</title>
<path fill="none" stroke="#000000" d="M1555.5719,-46.337C1600.0682,-48.9332 1647.2017,-51.6834 1684.5178,-53.8607"/>
<polygon fill="#000000" stroke="#000000" points="1684.5853,-57.3705 1694.7722,-54.459 1684.9931,-50.3824 1684.5853,-57.3705"/>
</g>
<!-- N4 -->
<g id="node5" class="node">
<title>N4</title>
<ellipse fill="none" stroke="#000000" cx="167.0352" cy="-98" rx="77.9862" ry="18"/>
<text text-anchor="middle" x="167.0352" y="-94.3" font-family="Times,serif" font-size="14.00" fill="#000000">v4 = constant({2})</text>
</g>
<!-- N4&#45;&gt;N6 -->
<g id="edge2" class="edge">
<title>N4&#45;&gt;N6</title>
<path fill="none" stroke="#000000" d="M242.9445,-102.1683C308.6091,-105.7741 402.5903,-110.9347 465.1997,-114.3727"/>
<polygon fill="#000000" stroke="#000000" points="465.1772,-117.8767 475.3541,-114.9303 465.5611,-110.8872 465.1772,-117.8767"/>
</g>
<!-- N5 -->
<g id="node6" class="node">
<title>N5</title>
<ellipse fill="none" stroke="#000000" cx="1755.4602" cy="-18" rx="145.6742" ry="18"/>
<text text-anchor="middle" x="1755.4602" y="-14.3" font-family="Times,serif" font-size="14.00" fill="#000000">v5 = scalar_constant(0x7fffa675a014)</text>
</g>
<!-- N11 -->
<g id="node12" class="node">
<title>N11</title>
<ellipse fill="none" stroke="#000000" cx="2022.1897" cy="-38" rx="85.2851" ry="18"/>
<text text-anchor="middle" x="2022.1897" y="-34.3" font-family="Times,serif" font-size="14.00" fill="#000000">v11 = || v10 &#45; v5 ||^2</text>
</g>
<!-- N5&#45;&gt;N11 -->
<g id="edge11" class="edge">
<title>N5&#45;&gt;N11</title>
<path fill="none" stroke="#000000" d="M1880.2345,-27.3559C1897.5257,-28.6524 1915.0104,-29.9634 1931.5192,-31.2013"/>
<polygon fill="#000000" stroke="#000000" points="1931.4281,-34.7042 1941.6618,-31.9618 1931.9515,-27.7238 1931.4281,-34.7042"/>
</g>
<!-- N6&#45;&gt;N7 -->
<g id="edge3" class="edge">
<title>N6&#45;&gt;N7</title>
<path fill="none" stroke="#000000" d="M586.2799,-113.6849C625.5099,-110.6084 678.4472,-106.457 720.0055,-103.1979"/>
<polygon fill="#000000" stroke="#000000" points="720.3434,-106.6822 730.0392,-102.411 719.7961,-99.7037 720.3434,-106.6822"/>
</g>
<!-- N8 -->
<g id="node9" class="node">
<title>N8</title>
<ellipse fill="none" stroke="#000000" cx="1047.8166" cy="-98" rx="65.7887" ry="18"/>
<text text-anchor="middle" x="1047.8166" y="-94.3" font-family="Times,serif" font-size="14.00" fill="#000000">v8 = ReLU(v7)</text>
</g>
<!-- N7&#45;&gt;N8 -->
<g id="edge5" class="edge">
<title>N7&#45;&gt;N8</title>
<path fill="none" stroke="#000000" d="M844.3286,-98C881.9242,-98 931.2793,-98 971.9666,-98"/>
<polygon fill="#000000" stroke="#000000" points="972.1117,-101.5001 982.1117,-98 972.1116,-94.5001 972.1117,-101.5001"/>
</g>
<!-- N8&#45;&gt;N9 -->
<g id="edge7" class="edge">
<title>N8&#45;&gt;N9</title>
<path fill="none" stroke="#000000" d="M1112.2083,-94.4704C1178.0405,-90.8619 1279.8113,-85.2835 1346.3434,-81.6366"/>
<polygon fill="#000000" stroke="#000000" points="1346.9145,-85.1106 1356.7079,-81.0685 1346.5313,-78.1211 1346.9145,-85.1106"/>
</g>
<!-- N9&#45;&gt;N10 -->
<g id="edge8" class="edge">
<title>N9&#45;&gt;N10</title>
<path fill="none" stroke="#000000" d="M1468.5227,-74.7421C1527.496,-71.3012 1620.6358,-65.8667 1684.7122,-62.128"/>
<polygon fill="#000000" stroke="#000000" points="1684.9577,-65.6197 1694.7368,-61.5431 1684.5499,-58.6316 1684.9577,-65.6197"/>
</g>
<!-- N10&#45;&gt;N11 -->
<g id="edge10" class="edge">
<title>N10&#45;&gt;N11</title>
<path fill="none" stroke="#000000" d="M1815.3195,-53.5116C1849.5814,-50.9426 1893.256,-47.6678 1931.6381,-44.7898"/>
<polygon fill="#000000" stroke="#000000" points="1932.0802,-48.2665 1941.7905,-44.0285 1931.5567,-41.2861 1932.0802,-48.2665"/>
</g>
</g>
</svg>
